<svg width="39" height="46" viewBox="0 0 39 46" fill="none" xmlns="http://www.w3.org/2000/svg">
<path d="M19.5 0.083374L0.75 8.41671V20.9167C0.75 32.4792 8.75 43.2917 19.5 45.9167C30.25 43.2917 38.25 32.4792 38.25 20.9167V8.41671L19.5 0.083374ZM19.5 8.20837C20.7361 8.20837 21.9445 8.57493 22.9723 9.26169C24.0001 9.94845 24.8012 10.9246 25.2742 12.0666C25.7473 13.2086 25.8711 14.4653 25.6299 15.6777C25.3888 16.8901 24.7935 18.0037 23.9194 18.8778C23.0453 19.7519 21.9317 20.3471 20.7193 20.5883C19.5069 20.8294 18.2503 20.7057 17.1082 20.2326C15.9662 19.7596 14.9901 18.9585 14.3033 17.9307C13.6166 16.9029 13.25 15.6945 13.25 14.4584C13.25 12.8008 13.9085 11.2111 15.0806 10.039C16.2527 8.86685 17.8424 8.20837 19.5 8.20837ZM19.5 24.6667C23.6667 24.6667 32 26.9375 32 31.0834C30.6317 33.1461 28.7742 34.8382 26.5932 36.0087C24.4121 37.1792 21.9753 37.7918 19.5 37.7918C17.0247 37.7918 14.5879 37.1792 12.4068 36.0087C10.2258 34.8382 8.36827 33.1461 7 31.0834C7 26.9375 15.3333 24.6667 19.5 24.6667Z" fill="#F8F9FA"/>
</svg>
