<svg width="51" height="51" viewBox="0 0 51 51" fill="none" xmlns="http://www.w3.org/2000/svg">
<path d="M21.5872 37.7623C21.5872 29.2662 27.9543 22.2643 36.1672 21.2389V21.0924C36.7043 20.3112 38.2473 19.0123 38.2473 16.9225C38.2473 14.8326 36.1672 12.7526 36.1672 11.7174C36.177 3.38733 31.929 0.262329 25.7571 0.262329C19.8489 0.262329 15.3372 3.38733 15.3372 11.7174C15.3372 12.7623 13.2571 14.8424 13.2571 16.9225C13.2571 19.0026 14.7415 20.3795 15.3372 21.0924C15.3372 21.0924 15.3372 23.1725 16.3821 26.2975C16.3821 27.3424 18.4622 28.3776 19.5071 29.4225C19.5071 30.4674 19.5071 31.5026 18.4622 33.5924L7.00708 35.6823C2.83716 36.7174 0.75708 44.0123 0.75708 50.2623H27.261C23.7942 47.2057 21.5872 42.7428 21.5872 37.7623ZM38.2571 25.2623C31.3528 25.2623 25.7571 30.858 25.7571 37.7623C25.7571 44.6666 31.3528 50.2623 38.2571 50.2623C45.1614 50.2623 50.7571 44.6666 50.7571 37.7623C50.7571 30.858 45.1614 25.2623 38.2571 25.2623ZM46.5872 39.8424H40.3372V46.0924H36.1672V39.8424H29.9172V35.6725H36.1672V29.4225H40.3372V35.6725H46.5872V39.8424Z" fill="#F8F9FA"/>
</svg>
