<svg width="54" height="41" viewBox="0 0 54 41" fill="none" xmlns="http://www.w3.org/2000/svg">
<path d="M8.84442 5.16109C9.48743 3.66109 10.5567 2.38291 11.9196 1.48517C13.2826 0.587426 14.8791 0.109636 16.5111 0.111087H37.7178C41.0511 0.111087 44.0644 2.09775 45.3778 5.16109L48.0178 11.3211C48.2678 11.9044 48.7178 12.3844 49.2844 12.6678C50.9511 13.5011 52.1344 15.0511 52.5011 16.8744L53.6178 22.4711C53.7278 23.0078 53.7811 23.5544 53.7811 24.1044V25.4811C53.7811 28.1944 52.4811 30.6244 50.4478 32.1378V38.4444C50.4478 38.8865 50.2722 39.3104 49.9596 39.6229C49.647 39.9355 49.2231 40.1111 48.7811 40.1111H42.1144C41.6724 40.1111 41.2485 39.9355 40.9359 39.6229C40.6233 39.3104 40.4478 38.8865 40.4478 38.4444V33.9844C36.1411 34.1444 31.2978 34.2778 27.1144 34.2778C22.9311 34.2778 18.0878 34.1444 13.7811 33.9844V38.4444C13.7811 38.8865 13.6055 39.3104 13.2929 39.6229C12.9804 39.9355 12.5564 40.1111 12.1144 40.1111H5.44775C5.00573 40.1111 4.5818 39.9355 4.26924 39.6229C3.95668 39.3104 3.78109 38.8865 3.78109 38.4444V32.1378C1.74775 30.6244 0.447754 28.1944 0.447754 25.4811V24.1044C0.448313 23.5559 0.503023 23.0088 0.611087 22.4711L1.72775 16.8711C2.09442 15.0511 3.27775 13.4978 4.94109 12.6678C5.5104 12.3832 5.96039 11.9061 6.21109 11.3211L8.85109 5.16109H8.84442ZM10.4444 26.7778C11.3285 26.7778 12.1763 26.4266 12.8014 25.8014C13.4266 25.1763 13.7778 24.3285 13.7778 23.4444C13.7778 22.5604 13.4266 21.7125 12.8014 21.0874C12.1763 20.4623 11.3285 20.1111 10.4444 20.1111C9.56037 20.1111 8.71252 20.4623 8.0874 21.0874C7.46228 21.7125 7.11109 22.5604 7.11109 23.4444C7.11109 24.3285 7.46228 25.1763 8.0874 25.8014C8.71252 26.4266 9.56037 26.7778 10.4444 26.7778ZM43.7778 26.7778C44.6618 26.7778 45.5097 26.4266 46.1348 25.8014C46.7599 25.1763 47.1111 24.3285 47.1111 23.4444C47.1111 22.5604 46.7599 21.7125 46.1348 21.0874C45.5097 20.4623 44.6618 20.1111 43.7778 20.1111C42.8937 20.1111 42.0459 20.4623 41.4207 21.0874C40.7956 21.7125 40.4444 22.5604 40.4444 23.4444C40.4444 24.3285 40.7956 25.1763 41.4207 25.8014C42.0459 26.4266 42.8937 26.7778 43.7778 26.7778ZM20.4444 20.1111C19.5604 20.1111 18.7125 20.4623 18.0874 21.0874C17.4623 21.7125 17.1111 22.5604 17.1111 23.4444C17.1111 24.3285 17.4623 25.1763 18.0874 25.8014C18.7125 26.4266 19.5604 26.7778 20.4444 26.7778H33.7778C34.6618 26.7778 35.5097 26.4266 36.1348 25.8014C36.7599 25.1763 37.1111 24.3285 37.1111 23.4444C37.1111 22.5604 36.7599 21.7125 36.1348 21.0874C35.5097 20.4623 34.6618 20.1111 33.7778 20.1111H20.4444ZM10.1311 10.7411C10.0008 11.0099 9.94365 11.3084 9.96541 11.6063C9.98718 11.9043 10.0871 12.1913 10.2551 12.4383C10.423 12.6854 10.6531 12.8838 10.9222 13.0136C11.1913 13.1434 11.4898 13.2 11.7878 13.1778C14.8211 12.9344 22.9544 12.6111 27.1111 12.6111C31.2678 12.6111 39.4044 12.9344 42.4344 13.1778C42.7323 13.2 43.0309 13.1434 43.3 13.0136C43.569 12.8838 43.7992 12.6854 43.9671 12.4383C44.1351 12.1913 44.235 11.9043 44.2568 11.6063C44.2785 11.3084 44.2214 11.0099 44.0911 10.7411L40.9044 4.36442C40.7659 4.08793 40.5531 3.85544 40.29 3.69297C40.0268 3.53049 39.7237 3.44443 39.4144 3.44442H14.8078C14.4985 3.44443 14.1953 3.53049 13.9322 3.69297C13.669 3.85544 13.4563 4.08793 13.3178 4.36442L10.1311 10.7411Z" fill="#F8F9FA"/>
</svg>
