<svg width="25" height="25" viewBox="0 0 25 25" fill="none" xmlns="http://www.w3.org/2000/svg">
<path d="M1.57283 19.4043C1.65383 19.7562 1.82593 20.0805 2.07185 20.3449C2.31778 20.6093 2.6289 20.8043 2.974 20.9105L3.184 21.8333H3.1665V24.1666H21.8332V21.8333H6.29666C6.31198 21.7255 6.30922 21.6159 6.2885 21.509L6.05983 20.5021L18.143 17.7535L18.3717 18.7603C18.4326 19.0274 18.5971 19.2594 18.8289 19.4053C19.0608 19.5513 19.3412 19.5991 19.6083 19.5385L20.6152 19.3086C20.7475 19.2786 20.8726 19.2228 20.9834 19.1444C21.0941 19.066 21.1883 18.9665 21.2606 18.8516C21.3329 18.7368 21.3818 18.6088 21.4046 18.475C21.4273 18.3412 21.4235 18.2043 21.3933 18.072L21.1005 16.7851C21.6208 16.2998 21.8822 15.5648 21.713 14.8216L21.0247 11.8C20.9411 11.4359 20.7599 11.1016 20.5005 10.8329C20.241 10.5642 19.9132 10.3714 19.5523 10.2751L17.1618 6.33415C16.8093 5.75512 16.2839 5.3014 15.6597 5.03703C15.0355 4.77265 14.344 4.71095 13.6828 4.86065L4.50349 6.94898C3.84162 7.09891 3.24378 7.45347 2.79479 7.96235C2.3458 8.47123 2.06848 9.10859 2.00216 9.78398L1.55066 14.3713C1.26748 14.6145 1.05592 14.9302 0.938754 15.2846C0.821584 15.639 0.803229 16.0186 0.885662 16.3826L1.57283 19.4043ZM5.09616 18.6016C4.89783 18.6468 4.69254 18.6525 4.49202 18.6184C4.29149 18.5843 4.09965 18.5109 3.92745 18.4027C3.75525 18.2944 3.60607 18.1532 3.48841 17.9873C3.37076 17.8214 3.28694 17.6339 3.24174 17.4356C3.19655 17.2372 3.19086 17.0319 3.225 16.8314C3.25914 16.6309 3.33244 16.439 3.44072 16.2668C3.54901 16.0947 3.69014 15.9455 3.85608 15.8278C4.02201 15.7102 4.2095 15.6263 4.40783 15.5811C4.80837 15.4899 5.22877 15.5614 5.57654 15.7801C5.92431 15.9988 6.17097 16.3467 6.26225 16.7472C6.35352 17.1478 6.28195 17.5682 6.06327 17.9159C5.84458 18.2637 5.4967 18.5104 5.09616 18.6016ZM18.1885 15.6243C17.9868 15.6798 17.7759 15.6938 17.5686 15.6655C17.3613 15.6373 17.1619 15.5673 16.9824 15.4599C16.8029 15.3525 16.647 15.2099 16.5241 15.0406C16.4012 14.8713 16.3138 14.6789 16.2673 14.4749C16.2208 14.2709 16.216 14.0597 16.2534 13.8538C16.2907 13.648 16.3694 13.4518 16.4846 13.2772C16.5998 13.1026 16.7492 12.9531 16.9237 12.8378C17.0983 12.7224 17.2943 12.6436 17.5002 12.6061C17.8928 12.5346 18.2979 12.6174 18.631 12.8371C18.9642 13.0569 19.1996 13.3968 19.2884 13.7859C19.3771 14.175 19.3123 14.5834 19.1074 14.9258C18.9025 15.2683 18.5733 15.5185 18.1885 15.6243ZM5.02033 9.22398L14.2008 7.13448C14.3848 7.09292 14.5771 7.11007 14.7508 7.18352C14.9245 7.25698 15.0708 7.38304 15.1692 7.54398L17.0183 10.5925L16.358 10.743L4.63766 13.4111L3.97499 13.5616L4.32383 10.0126C4.34261 9.82477 4.41995 9.64755 4.54494 9.50603C4.66992 9.36451 4.83622 9.26584 5.02033 9.22398ZM19.9723 3.16665L18.3332 0.833313L17.7498 4.33331L20.6665 8.99998L24.1665 10.1666L21.8332 7.20448L24.1665 6.11598L21.8332 5.02748L24.1665 0.833313L19.9723 3.16665Z" fill="white"/>
</svg>
