<svg width="24" height="19" viewBox="0 0 24 19" fill="none" xmlns="http://www.w3.org/2000/svg">
<path d="M3.78045 2.7725C4.06981 2.0975 4.551 1.52232 5.16431 1.11834C5.77762 0.714354 6.49605 0.499348 7.23045 0.500001H16.7735C18.2735 0.500001 19.6295 1.394 20.2205 2.7725L21.4085 5.5445C21.521 5.807 21.7235 6.023 21.9785 6.1505C22.7285 6.5255 23.261 7.223 23.426 8.0435L23.9285 10.562C23.978 10.8035 24.002 11.0495 24.002 11.297V11.9165C24.002 13.1375 23.417 14.231 22.502 14.912V17.75C22.502 17.9489 22.4229 18.1397 22.2823 18.2803C22.1416 18.421 21.9509 18.5 21.752 18.5H18.752C18.553 18.5 18.3623 18.421 18.2216 18.2803C18.081 18.1397 18.002 17.9489 18.002 17.75V15.743C16.064 15.815 13.8845 15.875 12.002 15.875C10.1195 15.875 7.93995 15.815 6.00195 15.743V17.75C6.00195 17.9489 5.92294 18.1397 5.78228 18.2803C5.64163 18.421 5.45087 18.5 5.25195 18.5H2.25195C2.05304 18.5 1.86228 18.421 1.72162 18.2803C1.58097 18.1397 1.50195 17.9489 1.50195 17.75V14.912C0.586953 14.231 0.00195312 13.1375 0.00195312 11.9165V11.297C0.00220487 11.0502 0.0268243 10.804 0.0754531 10.562L0.577953 8.042C0.742953 7.223 1.27545 6.524 2.02395 6.1505C2.28014 6.02247 2.48264 5.80775 2.59545 5.5445L3.78345 2.7725H3.78045ZM4.50045 12.5C4.89828 12.5 5.27981 12.342 5.56111 12.0607C5.84242 11.7794 6.00045 11.3978 6.00045 11C6.00045 10.6022 5.84242 10.2206 5.56111 9.93934C5.27981 9.65804 4.89828 9.5 4.50045 9.5C4.10263 9.5 3.7211 9.65804 3.43979 9.93934C3.15849 10.2206 3.00045 10.6022 3.00045 11C3.00045 11.3978 3.15849 11.7794 3.43979 12.0607C3.7211 12.342 4.10263 12.5 4.50045 12.5ZM19.5005 12.5C19.8983 12.5 20.2798 12.342 20.5611 12.0607C20.8424 11.7794 21.0005 11.3978 21.0005 11C21.0005 10.6022 20.8424 10.2206 20.5611 9.93934C20.2798 9.65804 19.8983 9.5 19.5005 9.5C19.1026 9.5 18.7211 9.65804 18.4398 9.93934C18.1585 10.2206 18.0005 10.6022 18.0005 11C18.0005 11.3978 18.1585 11.7794 18.4398 12.0607C18.7211 12.342 19.1026 12.5 19.5005 12.5ZM9.00045 9.5C8.60263 9.5 8.2211 9.65804 7.93979 9.93934C7.65849 10.2206 7.50045 10.6022 7.50045 11C7.50045 11.3978 7.65849 11.7794 7.93979 12.0607C8.2211 12.342 8.60263 12.5 9.00045 12.5H15.0005C15.3983 12.5 15.7798 12.342 16.0611 12.0607C16.3424 11.7794 16.5005 11.3978 16.5005 11C16.5005 10.6022 16.3424 10.2206 16.0611 9.93934C15.7798 9.65804 15.3983 9.5 15.0005 9.5H9.00045ZM4.35945 5.2835C4.30082 5.40448 4.27511 5.53878 4.2849 5.67286C4.29469 5.80694 4.33965 5.93608 4.41524 6.04725C4.49083 6.15843 4.59438 6.24773 4.71546 6.30614C4.83655 6.36456 4.97089 6.39003 5.10495 6.38C6.46995 6.2705 10.13 6.125 12.0005 6.125C13.871 6.125 17.5325 6.2705 18.896 6.38C19.03 6.39003 19.1644 6.36456 19.2854 6.30614C19.4065 6.24773 19.5101 6.15843 19.5857 6.04725C19.6613 5.93608 19.7062 5.80694 19.716 5.67286C19.7258 5.53878 19.7001 5.40448 19.6415 5.2835L18.2075 2.414C18.1451 2.28958 18.0494 2.18496 17.931 2.11185C17.8125 2.03873 17.6761 2.00001 17.537 2H6.46395C6.32479 2.00001 6.18836 2.03873 6.06995 2.11185C5.95154 2.18496 5.8558 2.28958 5.79345 2.414L4.35945 5.2835Z" fill="#F8F9FA"/>
</svg>
