<svg width="21" height="20" viewBox="0 0 21 20" fill="none" xmlns="http://www.w3.org/2000/svg">
<path d="M7.66711 17.5C8.35747 17.5 8.91711 16.9404 8.91711 16.25C8.91711 15.5596 8.35747 15 7.66711 15C6.97676 15 6.41711 15.5596 6.41711 16.25C6.41711 16.9404 6.97676 17.5 7.66711 17.5Z" fill="white"/>
<path d="M16.4172 17.5C17.1076 17.5 17.6672 16.9404 17.6672 16.25C17.6672 15.5596 17.1076 15 16.4172 15C15.7269 15 15.1672 15.5596 15.1672 16.25C15.1672 16.9404 15.7269 17.5 16.4172 17.5Z" fill="white"/>
<path d="M18.636 4.71821C18.5482 4.61081 18.4376 4.52431 18.3122 4.46498C18.1867 4.40566 18.0497 4.375 17.911 4.37524H6.02231L5.78286 3.01665C5.75733 2.87193 5.68162 2.74084 5.56903 2.6464C5.45645 2.55196 5.31419 2.50021 5.16724 2.50024H2.66724C2.50148 2.50024 2.3425 2.56609 2.22529 2.6833C2.10808 2.80051 2.04224 2.95948 2.04224 3.12524C2.04224 3.291 2.10808 3.44998 2.22529 3.56719C2.3425 3.6844 2.50148 3.75024 2.66724 3.75024H4.64302L6.42661 13.8588C6.45214 14.0036 6.52785 14.1346 6.64044 14.2291C6.75302 14.3235 6.89528 14.3753 7.04223 14.3752H17.0422C17.208 14.3752 17.367 14.3094 17.4842 14.1922C17.6014 14.075 17.6672 13.916 17.6672 13.7502C17.6672 13.5845 17.6014 13.4255 17.4842 13.3083C17.367 13.1911 17.208 13.1252 17.0422 13.1252H7.56645L7.34614 11.8752H16.786C17.0027 11.875 17.2127 11.7998 17.3804 11.6625C17.5481 11.5252 17.6633 11.3342 17.7063 11.1217L18.8313 5.49673C18.8584 5.3606 18.8549 5.22014 18.8212 5.08551C18.7874 4.95088 18.7241 4.82543 18.636 4.71821V4.71821Z" fill="white"/>
</svg>
