<svg width="24" height="20" viewBox="0 0 24 20" fill="none" xmlns="http://www.w3.org/2000/svg">
<path d="M13.0766 3.93652C13.4958 3.7071 13.8245 3.35022 14.0114 2.92158C14.1982 2.49295 14.2327 2.01669 14.1095 1.56713C13.9864 1.11758 13.7124 0.720022 13.3304 0.436522C12.9484 0.153022 12.4798 -0.000471002 11.9979 1.08572e-06C11.516 0.000473173 11.0477 0.154884 10.6663 0.439132C10.2849 0.72338 10.0118 1.12147 9.88954 1.57127C9.76729 2.02107 9.80282 2.49726 9.99058 2.92552C10.1783 3.35379 10.5078 3.71002 10.9274 3.93863L10.9165 3.95758C10.2019 5.39655 9.20916 7.45765 7.67635 8.23135C6.41737 8.86609 4.61073 8.54714 3.26884 8.30924C3.24732 8.01483 3.1407 7.73213 2.96109 7.49322C2.78148 7.25431 2.53606 7.06876 2.25269 6.95761C1.96932 6.84647 1.65933 6.81418 1.35791 6.86442C1.05648 6.91466 0.775682 7.04541 0.547371 7.24183C0.319059 7.43825 0.152375 7.69249 0.0662318 7.97569C-0.0199117 8.25889 -0.0220659 8.55972 0.0600134 8.84404C0.142093 9.12837 0.30512 9.3848 0.530596 9.58425C0.756073 9.7837 1.03497 9.91818 1.33565 9.97243L4.55182 17.9831C4.79033 18.577 5.20938 19.0874 5.75395 19.4473C6.29852 19.8073 6.94317 19.9999 7.60326 20H16.3965C17.0565 19.9999 17.7012 19.8073 18.2458 19.4473C18.7903 19.0874 19.2094 18.577 19.4479 17.9831L22.663 9.97243C22.9617 9.91878 23.2391 9.7859 23.4641 9.5887C23.689 9.39149 23.8526 9.13775 23.9364 8.8559C24.0203 8.57405 24.0212 8.27523 23.939 7.99292C23.8567 7.71062 23.6947 7.45598 23.4709 7.25755C23.2471 7.05912 22.9705 6.92473 22.6721 6.86945C22.3736 6.81416 22.0651 6.84016 21.7811 6.94454C21.4971 7.04891 21.2488 7.22754 21.0641 7.46039C20.8793 7.69325 20.7655 7.97114 20.7352 8.26293C19.3617 8.43451 17.5911 8.65346 16.3234 8.0145C14.8211 7.25659 13.8141 5.3376 13.0766 3.93652Z" fill="#F8F9FA"/>
</svg>
