<svg width="26" height="27" viewBox="0 0 26 27" fill="none" xmlns="http://www.w3.org/2000/svg">
<path d="M2.75 26.125C2.0625 26.125 1.47375 25.8804 0.983752 25.3913C0.493752 24.9021 0.249169 24.3133 0.250002 23.625V6.125C0.250002 5.4375 0.495002 4.84875 0.985002 4.35875C1.475 3.86875 2.06334 3.62417 2.75 3.625H13.9063L11.4063 6.125H2.75V23.625H20.25V14.9375L22.75 12.4375V23.625C22.75 24.3125 22.505 24.9013 22.015 25.3913C21.525 25.8813 20.9367 26.1258 20.25 26.125H2.75ZM16.7188 4.34375L18.5 6.09375L10.25 14.3437V16.125H12L20.2813 7.84375L22.0625 9.59375L13.7813 17.875C13.5521 18.1042 13.2863 18.2867 12.9838 18.4225C12.6813 18.5583 12.3638 18.6258 12.0313 18.625H9C8.64584 18.625 8.34875 18.505 8.10875 18.265C7.86875 18.025 7.74917 17.7283 7.75 17.375V14.3437C7.75 14.0104 7.8125 13.6925 7.9375 13.39C8.0625 13.0875 8.23959 12.8221 8.46875 12.5938L16.7188 4.34375ZM22.0625 9.59375L16.7188 4.34375L19.8438 1.21875C20.3438 0.71875 20.9429 0.46875 21.6413 0.46875C22.3396 0.46875 22.9279 0.71875 23.4063 1.21875L25.1563 3C25.6354 3.47917 25.875 4.0625 25.875 4.75C25.875 5.4375 25.6354 6.02083 25.1563 6.5L22.0625 9.59375Z" fill="white"/>
</svg>
