<svg width="18" height="16" viewBox="0 0 18 16" fill="none" xmlns="http://www.w3.org/2000/svg">
<g clip-path="url(#clip0_17_1375)">
<path d="M9.37018 3.17307C9.32099 3.13125 9.25554 3.10791 9.18746 3.10791C9.11939 3.10791 9.05394 3.13125 9.00475 3.17307L2.92196 8.33696C2.89612 8.35892 2.87557 8.3853 2.86155 8.41453C2.84752 8.44375 2.84031 8.47519 2.84035 8.50696L2.83936 13.3534C2.83936 13.6026 2.95075 13.8416 3.14903 14.0178C3.34731 14.194 3.61624 14.293 3.89666 14.293H7.07187C7.21207 14.293 7.34654 14.2435 7.44568 14.1554C7.54482 14.0673 7.60052 13.9478 7.60052 13.8232V9.83001C7.60052 9.76771 7.62837 9.70797 7.67794 9.66392C7.72751 9.61986 7.79474 9.59512 7.86484 9.59512H10.5081C10.5782 9.59512 10.6454 9.61986 10.695 9.66392C10.7446 9.70797 10.7724 9.76771 10.7724 9.83001V13.8232C10.7724 13.9478 10.8281 14.0673 10.9273 14.1554C11.0264 14.2435 11.1609 14.293 11.3011 14.293H14.475C14.7554 14.293 15.0243 14.194 15.2226 14.0178C15.4209 13.8416 15.5323 13.6026 15.5323 13.3534V8.50696C15.5323 8.47519 15.5251 8.44375 15.5111 8.41453C15.497 8.3853 15.4765 8.35892 15.4507 8.33696L9.37018 3.17307Z" fill="white"/>
<path d="M16.9484 7.36855L14.477 5.2674V2.07899C14.477 1.95439 14.4213 1.8349 14.3222 1.74679C14.223 1.65869 14.0886 1.6092 13.9483 1.6092H12.3624C12.2222 1.6092 12.0877 1.65869 11.9886 1.74679C11.8894 1.8349 11.8337 1.95439 11.8337 2.07899V3.01857L9.92003 1.3925C9.74095 1.2316 9.47464 1.1394 9.18686 1.1394C8.90006 1.1394 8.63442 1.2316 8.45534 1.3928L1.42758 7.36796C1.22207 7.54413 1.1963 7.83393 1.38331 8.02479C1.43027 8.07296 1.48777 8.11214 1.55231 8.13994C1.61685 8.16774 1.68708 8.18357 1.75873 8.18649C1.83038 8.1894 1.90194 8.17932 1.96907 8.15687C2.03619 8.13443 2.09748 8.10008 2.14919 8.05591L9.00513 2.23402C9.05432 2.1922 9.11977 2.16886 9.18785 2.16886C9.25592 2.16886 9.32137 2.1922 9.37056 2.23402L16.2272 8.05591C16.3282 8.14199 16.4635 8.18896 16.6034 8.18654C16.7433 8.18412 16.8764 8.1325 16.9736 8.04299C17.1764 7.85625 17.1596 7.54795 16.9484 7.36855Z" fill="white"/>
</g>
<defs>
<clipPath id="clip0_17_1375">
<rect width="16.9168" height="15.0333" fill="white" transform="translate(0.728027 0.198975)"/>
</clipPath>
</defs>
</svg>
