<svg width="41" height="37" viewBox="0 0 41 37" fill="none" xmlns="http://www.w3.org/2000/svg">
<path d="M8.918 36.053L27.839 0.754999H31.92L12.893 36.053H8.918ZM23.546 27.997C23.546 25.665 24.3587 23.6863 25.984 22.061C27.6093 20.4003 29.588 19.57 31.92 19.57C34.2167 19.57 36.1777 20.4003 37.803 22.061C39.4637 23.7217 40.294 25.7003 40.294 27.997C40.294 30.2937 39.4637 32.2723 37.803 33.933C36.1777 35.5583 34.2167 36.371 31.92 36.371C29.588 36.371 27.6093 35.5583 25.984 33.933C24.3587 32.2723 23.546 30.2937 23.546 27.997ZM0.597 8.705C0.597 6.40833 1.40967 4.44733 3.035 2.822C4.69567 1.16133 6.67433 0.330998 8.971 0.330998C11.2677 0.330998 13.2463 1.16133 14.907 2.822C16.5677 4.44733 17.398 6.40833 17.398 8.705C17.398 11.037 16.5677 13.0333 14.907 14.694C13.2463 16.3193 11.2677 17.132 8.971 17.132C6.67433 17.132 4.69567 16.3193 3.035 14.694C1.40967 13.0333 0.597 11.037 0.597 8.705ZM5.632 5.366C4.71333 6.28466 4.254 7.39766 4.254 8.705C4.254 10.0123 4.71333 11.143 5.632 12.097C6.55067 13.0157 7.66367 13.475 8.971 13.475C10.2783 13.475 11.3913 13.0157 12.31 12.097C13.264 11.143 13.741 10.0123 13.741 8.705C13.741 7.39766 13.264 6.28466 12.31 5.366C11.3913 4.44733 10.2783 3.988 8.971 3.988C7.66367 3.988 6.55067 4.44733 5.632 5.366ZM28.528 24.658C27.6093 25.5767 27.15 26.6897 27.15 27.997C27.15 29.3043 27.6093 30.4173 28.528 31.336C29.482 32.2547 30.6127 32.714 31.92 32.714C33.2273 32.714 34.3403 32.2547 35.259 31.336C36.213 30.4173 36.69 29.3043 36.69 27.997C36.69 26.6897 36.2307 25.5767 35.312 24.658C34.3933 23.704 33.2627 23.227 31.92 23.227C30.6127 23.227 29.482 23.704 28.528 24.658Z" fill="white"/>
</svg>
