<svg width="27" height="23" viewBox="0 0 27 23" fill="none" xmlns="http://www.w3.org/2000/svg">
<path d="M15.75 0.25C12.7663 0.25 9.90483 1.43526 7.79505 3.54505C5.68526 5.65483 4.5 8.51631 4.5 11.5H0.75L5.6125 16.3625L5.7 16.5375L10.75 11.5H7C7 6.6625 10.9125 2.75 15.75 2.75C20.5875 2.75 24.5 6.6625 24.5 11.5C24.5 16.3375 20.5875 20.25 15.75 20.25C13.3375 20.25 11.15 19.2625 9.575 17.675L7.8 19.45C8.84177 20.4975 10.0806 21.3284 11.4451 21.8948C12.8095 22.4612 14.2726 22.7518 15.75 22.75C18.7337 22.75 21.5952 21.5647 23.705 19.455C25.8147 17.3452 27 14.4837 27 11.5C27 8.51631 25.8147 5.65483 23.705 3.54505C21.5952 1.43526 18.7337 0.25 15.75 0.25ZM14.5 6.5V12.75L19.85 15.925L20.75 14.4125L16.375 11.8125V6.5H14.5Z" fill="white"/>
</svg>
