<svg width="21" height="20" viewBox="0 0 21 20" fill="none" xmlns="http://www.w3.org/2000/svg">
<path d="M19.3593 1.49542C19.3522 1.46087 19.3354 1.42908 19.3108 1.40375C19.2862 1.37843 19.255 1.36064 19.2207 1.35245C16.9328 0.793078 11.6464 2.78644 8.78238 5.64933C8.27155 6.15603 7.80586 6.70628 7.39059 7.29386C6.50738 7.21573 5.62418 7.28097 4.87145 7.60909C2.74762 8.54386 2.12926 10.9829 1.957 12.0321C1.94722 12.0896 1.95091 12.1485 1.96776 12.2042C1.98462 12.26 2.01418 12.3111 2.05412 12.3535C2.09406 12.3959 2.1433 12.4285 2.19795 12.4486C2.25261 12.4688 2.3112 12.476 2.3691 12.4696L5.77965 12.0935C5.78209 12.3506 5.7976 12.6074 5.82613 12.863C5.8433 13.0405 5.92208 13.2063 6.04879 13.3317L7.36949 14.6493C7.49504 14.7759 7.66083 14.8546 7.83824 14.872C8.09237 14.9004 8.34778 14.9159 8.60348 14.9185L8.22926 18.3247C8.22302 18.3826 8.23027 18.4412 8.25045 18.4958C8.27063 18.5504 8.30319 18.5996 8.34557 18.6395C8.38796 18.6794 8.43901 18.709 8.49474 18.7259C8.55046 18.7428 8.60934 18.7465 8.66676 18.7368C9.71402 18.5689 12.1574 17.9505 13.0867 15.8267C13.4148 15.0739 13.482 14.195 13.4062 13.3161C13.9952 12.9008 14.5469 12.435 15.055 11.9239C17.9281 9.06534 19.9101 3.89698 19.3593 1.49542ZM12.1886 8.51378C11.9263 8.2516 11.7476 7.91751 11.6751 7.55376C11.6027 7.19002 11.6398 6.81295 11.7816 6.47027C11.9235 6.12759 12.1638 5.83468 12.4722 5.6286C12.7806 5.42252 13.1431 5.31252 13.514 5.31252C13.8849 5.31252 14.2475 5.42252 14.5558 5.6286C14.8642 5.83468 15.1045 6.12759 15.2464 6.47027C15.3883 6.81295 15.4254 7.19002 15.3529 7.55376C15.2805 7.91751 15.1018 8.2516 14.8394 8.51378C14.6654 8.68799 14.4588 8.8262 14.2314 8.92049C14.004 9.01479 13.7602 9.06333 13.514 9.06333C13.2678 9.06333 13.024 9.01479 12.7966 8.92049C12.5692 8.8262 12.3626 8.68799 12.1886 8.51378Z" fill="white"/>
<path d="M7.27978 15.6037C7.06572 15.8182 6.72236 15.9018 6.30908 15.9732C5.38057 16.1314 4.56064 15.3291 4.72744 14.3904C4.79111 14.0346 4.97939 13.5357 5.09658 13.4186C5.1222 13.3934 5.13924 13.3609 5.14531 13.3255C5.15137 13.2902 5.14614 13.2538 5.13035 13.2216C5.11457 13.1894 5.08903 13.1629 5.05738 13.1461C5.02572 13.1292 4.98955 13.1227 4.954 13.1275C4.43477 13.1911 3.95171 13.4265 3.58174 13.7963C2.66338 14.7154 2.57666 18.126 2.57666 18.126C2.57666 18.126 5.98916 18.0393 6.90752 17.1201C7.27848 16.7504 7.51418 16.2666 7.57666 15.7467C7.59111 15.5834 7.39228 15.4861 7.27978 15.6037Z" fill="white"/>
</svg>
