<svg width="24" height="24" viewBox="0 0 24 24" fill="none" xmlns="http://www.w3.org/2000/svg">
<g clip-path="url(#clip0_174_119)">
<path d="M3.77996 5.2725C4.06932 4.5975 4.55051 4.02232 5.16382 3.61834C5.77713 3.21435 6.49556 2.99935 7.22997 3H16.773C18.273 3 19.629 3.894 20.22 5.2725L21.408 8.0445C21.5205 8.307 21.723 8.523 21.978 8.6505C22.728 9.0255 23.2605 9.723 23.4255 10.5435L23.928 13.062C23.9775 13.3035 24.0015 13.5495 24.0015 13.797V14.4165C24.0015 15.6375 23.4165 16.731 22.5015 17.412V20.25C22.5015 20.4489 22.4224 20.6397 22.2818 20.7803C22.1411 20.921 21.9504 21 21.7515 21H18.7515C18.5526 21 18.3618 20.921 18.2211 20.7803C18.0805 20.6397 18.0015 20.4489 18.0015 20.25V18.243C16.0635 18.315 13.884 18.375 12.0015 18.375C10.119 18.375 7.93947 18.315 6.00146 18.243V20.25C6.00146 20.4489 5.92245 20.6397 5.7818 20.7803C5.64114 20.921 5.45038 21 5.25146 21H2.25146C2.05255 21 1.86179 20.921 1.72113 20.7803C1.58048 20.6397 1.50146 20.4489 1.50146 20.25V17.412C0.586465 16.731 0.00146484 15.6375 0.00146484 14.4165V13.797C0.00171659 13.5502 0.026336 13.304 0.0749649 13.062L0.577465 10.542C0.742465 9.723 1.27496 9.024 2.02346 8.6505C2.27966 8.52247 2.48215 8.30775 2.59496 8.0445L3.78297 5.2725H3.77996ZM4.49996 15C4.89779 15 5.27932 14.842 5.56063 14.5607C5.84193 14.2794 5.99996 13.8978 5.99996 13.5C5.99996 13.1022 5.84193 12.7206 5.56063 12.4393C5.27932 12.158 4.89779 12 4.49996 12C4.10214 12 3.72061 12.158 3.4393 12.4393C3.158 12.7206 2.99996 13.1022 2.99996 13.5C2.99996 13.8978 3.158 14.2794 3.4393 14.5607C3.72061 14.842 4.10214 15 4.49996 15ZM19.5 15C19.8978 15 20.2793 14.842 20.5606 14.5607C20.8419 14.2794 21 13.8978 21 13.5C21 13.1022 20.8419 12.7206 20.5606 12.4393C20.2793 12.158 19.8978 12 19.5 12C19.1021 12 18.7206 12.158 18.4393 12.4393C18.158 12.7206 18 13.1022 18 13.5C18 13.8978 18.158 14.2794 18.4393 14.5607C18.7206 14.842 19.1021 15 19.5 15ZM8.99996 12C8.60214 12 8.22061 12.158 7.93931 12.4393C7.658 12.7206 7.49996 13.1022 7.49996 13.5C7.49996 13.8978 7.658 14.2794 7.93931 14.5607C8.22061 14.842 8.60214 15 8.99996 15H15C15.3978 15 15.7793 14.842 16.0606 14.5607C16.3419 14.2794 16.5 13.8978 16.5 13.5C16.5 13.1022 16.3419 12.7206 16.0606 12.4393C15.7793 12.158 15.3978 12 15 12H8.99996ZM4.35896 7.7835C4.30033 7.90448 4.27462 8.03878 4.28441 8.17286C4.2942 8.30694 4.33916 8.43608 4.41475 8.54725C4.49034 8.65843 4.59389 8.74773 4.71497 8.80614C4.83606 8.86456 4.9704 8.89003 5.10447 8.88C6.46947 8.7705 10.1295 8.625 12 8.625C13.8705 8.625 17.532 8.7705 18.8955 8.88C19.0295 8.89003 19.1639 8.86456 19.285 8.80614C19.406 8.74773 19.5096 8.65843 19.5852 8.54725C19.6608 8.43608 19.7057 8.30694 19.7155 8.17286C19.7253 8.03878 19.6996 7.90448 19.641 7.7835L18.207 4.914C18.1446 4.78958 18.0489 4.68496 17.9305 4.61185C17.8121 4.53873 17.6756 4.50001 17.5365 4.5H6.46346C6.3243 4.50001 6.18788 4.53873 6.06946 4.61185C5.95105 4.68496 5.85531 4.78958 5.79296 4.914L4.35896 7.7835Z" fill="#F8F9FA"/>
</g>
<defs>
<clipPath id="clip0_174_119">
<rect width="24" height="24" fill="white"/>
</clipPath>
</defs>
</svg>
