<svg width="16" height="20" viewBox="0 0 16 20" fill="none" xmlns="http://www.w3.org/2000/svg">
<path d="M8 13.5C3.58 13.5 0 15.29 0 17.5V19.5H16V17.5C16 15.29 12.42 13.5 8 13.5ZM4 7.5C4 8.56087 4.42143 9.57828 5.17157 10.3284C5.92172 11.0786 6.93913 11.5 8 11.5C9.06087 11.5 10.0783 11.0786 10.8284 10.3284C11.5786 9.57828 12 8.56087 12 7.5M7.5 0.5C7.2 0.5 7 0.71 7 1V4H6V1.5C6 1.5 3.75 2.36 3.75 5.25C3.75 5.25 3 5.39 3 6.5H13C12.95 5.39 12.25 5.25 12.25 5.25C12.25 2.36 10 1.5 10 1.5V4H9V1C9 0.71 8.81 0.5 8.5 0.5H7.5Z" fill="#F8F9FA"/>
</svg>
