<svg width="21" height="20" viewBox="0 0 21 20" fill="none" xmlns="http://www.w3.org/2000/svg">
<path d="M3.99431 4.06056H16.4943C16.6403 4.0605 16.7862 4.06976 16.931 4.0883C16.8819 3.74368 16.7636 3.41257 16.583 3.11493C16.4025 2.8173 16.1636 2.5593 15.8807 2.3565C15.5978 2.1537 15.2767 2.01029 14.9369 1.93493C14.597 1.85956 14.2454 1.8538 13.9033 1.91799L3.62322 3.67306H3.6115C2.96621 3.79646 2.39238 4.16155 2.0072 4.69377C2.58751 4.281 3.28218 4.05964 3.99431 4.06056V4.06056Z" fill="white"/>
<path d="M16.4944 4.99988H3.99438C3.33157 5.0006 2.6961 5.26423 2.22742 5.73291C1.75873 6.20159 1.49511 6.83706 1.49438 7.49988V14.9999C1.49511 15.6627 1.75873 16.2982 2.22742 16.7668C2.6961 17.2355 3.33157 17.4992 3.99438 17.4999H16.4944C17.1572 17.4992 17.7927 17.2355 18.2613 16.7668C18.73 16.2982 18.9937 15.6627 18.9944 14.9999V7.49988C18.9937 6.83706 18.73 6.20159 18.2613 5.73291C17.7927 5.26423 17.1572 5.0006 16.4944 4.99988V4.99988ZM14.6389 12.4999C14.3917 12.4999 14.15 12.4266 13.9444 12.2892C13.7389 12.1519 13.5787 11.9566 13.4841 11.7282C13.3895 11.4998 13.3647 11.2485 13.4129 11.006C13.4612 10.7635 13.5802 10.5408 13.755 10.366C13.9298 10.1912 14.1526 10.0721 14.395 10.0239C14.6375 9.97566 14.8889 10.0004 15.1173 10.095C15.3457 10.1896 15.5409 10.3499 15.6782 10.5554C15.8156 10.761 15.8889 11.0026 15.8889 11.2499C15.8889 11.5814 15.7572 11.8993 15.5228 12.1338C15.2884 12.3682 14.9704 12.4999 14.6389 12.4999Z" fill="white"/>
<path d="M1.51392 10.1345V6.2478C1.51392 5.40132 1.98267 3.98218 3.60962 3.67476C4.99048 3.41577 6.35767 3.41577 6.35767 3.41577C6.35767 3.41577 7.2561 4.04077 6.51392 4.04077C5.77173 4.04077 5.79126 4.9978 6.51392 4.9978C7.23657 4.9978 6.51392 5.91577 6.51392 5.91577L3.60376 9.21655L1.51392 10.1345Z" fill="white"/>
</svg>
