<svg width="21" height="20" viewBox="0 0 21 20" fill="none" xmlns="http://www.w3.org/2000/svg">
<path d="M19.0698 4.70856C19.0248 4.62103 18.9597 4.54537 18.88 4.48773C18.8002 4.43009 18.7079 4.39212 18.6107 4.37689C18.5134 4.36166 18.414 4.36961 18.3204 4.40009C18.2268 4.43058 18.1417 4.48273 18.0721 4.55231L15.6721 6.95387C15.5543 7.06997 15.3955 7.13506 15.2301 7.13506C15.0647 7.13506 14.906 7.06997 14.7881 6.95387L13.7506 5.91481C13.6926 5.85677 13.6465 5.78786 13.6151 5.71203C13.5837 5.63619 13.5675 5.5549 13.5675 5.47282C13.5675 5.39073 13.5837 5.30944 13.6151 5.23361C13.6465 5.15777 13.6926 5.08886 13.7506 5.03082L16.1405 2.64059C16.2121 2.56896 16.2653 2.48098 16.2954 2.38424C16.3255 2.2875 16.3316 2.1849 16.3132 2.08527C16.2948 1.98564 16.2525 1.89197 16.1899 1.81233C16.1273 1.73268 16.0462 1.66946 15.9538 1.62809V1.62809C14.1487 0.821059 11.8956 1.24215 10.4749 2.65231C9.26784 3.85075 8.90807 5.7234 9.48854 7.7902C9.51983 7.90041 9.52001 8.01714 9.48906 8.12745C9.4581 8.23776 9.39722 8.33736 9.31315 8.4152L2.81003 14.3546C2.55668 14.5821 2.35234 14.8588 2.20945 15.1678C2.06656 15.4769 1.98813 15.8118 1.97894 16.1521C1.96975 16.4925 2.02999 16.8312 2.156 17.1475C2.282 17.4638 2.47112 17.7511 2.71181 17.9919C2.95251 18.2327 3.23975 18.4219 3.55599 18.5481C3.87224 18.6742 4.21087 18.7346 4.55122 18.7256C4.89157 18.7165 5.22652 18.6382 5.53562 18.4955C5.84473 18.3527 6.12151 18.1485 6.34909 17.8953L12.3522 11.3777C12.4289 11.2947 12.5268 11.2342 12.6354 11.2028C12.7439 11.1713 12.859 11.1701 12.9682 11.1992C13.5566 11.3604 14.1636 11.4441 14.7737 11.448C16.0784 11.448 17.2233 11.0257 18.0491 10.2121C19.5784 8.70543 19.8116 6.14996 19.0698 4.70856ZM4.61432 17.4675C4.35706 17.4956 4.09742 17.4432 3.87123 17.3174C3.64505 17.1916 3.46348 16.9988 3.35158 16.7654C3.23968 16.5321 3.20296 16.2697 3.2465 16.0146C3.29004 15.7595 3.41168 15.5242 3.59465 15.3412C3.77761 15.1582 4.01287 15.0364 4.26796 14.9928C4.52305 14.9492 4.78539 14.9858 5.01878 15.0976C5.25217 15.2094 5.4451 15.3909 5.57095 15.6171C5.69679 15.8432 5.74934 16.1028 5.72135 16.3601C5.69056 16.6432 5.56403 16.9073 5.36272 17.1086C5.16142 17.31 4.89739 17.4366 4.61432 17.4675V17.4675Z" fill="white"/>
</svg>
