<svg width="24" height="24" viewBox="0 0 24 24" fill="none" xmlns="http://www.w3.org/2000/svg">
<path d="M20.6291 15.9984C20.5513 15.9047 20.4749 15.8109 20.3999 15.7204C19.3687 14.4731 18.7448 13.7203 18.7448 10.1892C18.7448 8.36107 18.3074 6.86107 17.4454 5.73607C16.8098 4.90498 15.9505 4.27451 14.818 3.80857C14.8035 3.80047 14.7904 3.78983 14.7796 3.77717C14.3723 2.4131 13.2576 1.49951 12.0004 1.49951C10.7432 1.49951 9.62898 2.41311 9.22163 3.77576C9.21076 3.78796 9.19793 3.79826 9.18366 3.80623C6.54085 4.8942 5.25648 6.98154 5.25648 10.1878C5.25648 13.7203 4.63351 14.4731 3.60132 15.719C3.52632 15.8095 3.44991 15.9014 3.3721 15.997C3.1711 16.2394 3.04375 16.5343 3.00512 16.8468C2.9665 17.1594 3.01821 17.4764 3.15413 17.7604C3.44335 18.3698 4.05976 18.7481 4.76335 18.7481H19.2426C19.9429 18.7481 20.5551 18.3703 20.8452 17.7637C20.9817 17.4796 21.0339 17.1623 20.9956 16.8494C20.9573 16.5366 20.8301 16.2412 20.6291 15.9984V15.9984Z" fill="#718096"/>
<path d="M12.0004 22.4999C12.6778 22.4994 13.3423 22.3155 13.9237 21.9678C14.505 21.6202 14.9814 21.1216 15.3023 20.5251C15.3174 20.4965 15.3249 20.4645 15.324 20.4322C15.323 20.3998 15.3138 20.3683 15.2971 20.3406C15.2804 20.3129 15.2568 20.29 15.2286 20.2741C15.2005 20.2582 15.1687 20.2499 15.1363 20.2499H8.8654C8.83303 20.2498 8.80117 20.2581 8.77294 20.274C8.74471 20.2898 8.72106 20.3127 8.70431 20.3404C8.68755 20.3681 8.67825 20.3997 8.67732 20.4321C8.67639 20.4644 8.68386 20.4965 8.699 20.5251C9.01987 21.1215 9.49618 21.62 10.0774 21.9677C10.6586 22.3154 11.3231 22.4993 12.0004 22.4999Z" fill="#718096"/>
</svg>
