<svg width="30" height="30" viewBox="0 0 30 30" fill="none" xmlns="http://www.w3.org/2000/svg">
<path d="M22.955 22.955C24.5283 21.3817 25.5998 19.3771 26.0338 17.1948C26.4679 15.0126 26.2451 12.7506 25.3936 10.6949C24.5421 8.63924 23.1002 6.88224 21.2502 5.64608C19.4001 4.40992 17.225 3.75012 15 3.75012C12.775 3.75012 10.5999 4.40992 8.74985 5.64608C6.8998 6.88224 5.45786 8.63924 4.60637 10.6949C3.75488 12.7506 3.53209 15.0126 3.96616 17.1948C4.40023 19.3771 5.47168 21.3817 7.04501 22.955" stroke="#969AB8" stroke-width="2.5" stroke-linecap="round" stroke-linejoin="round"/>
<path d="M14.7076 27.5H15.2926C15.902 27.5001 16.4905 27.2776 16.9475 26.8743C17.4044 26.4711 17.6983 25.9147 17.7738 25.31L18.3988 20.31C18.4428 19.9582 18.4114 19.6011 18.3068 19.2624C18.2022 18.9236 18.0268 18.611 17.7921 18.3453C17.5574 18.0795 17.269 17.8667 16.9458 17.721C16.6226 17.5752 16.2721 17.4999 15.9176 17.5H14.0826C13.7281 17.4999 13.3776 17.5752 13.0544 17.721C12.7312 17.8667 12.4427 18.0795 12.208 18.3453C11.9734 18.611 11.7979 18.9236 11.6933 19.2624C11.5887 19.6011 11.5574 19.9582 11.6013 20.31L12.2263 25.31C12.3019 25.9147 12.5958 26.4711 13.0527 26.8743C13.5096 27.2776 14.0981 27.5001 14.7076 27.5ZM12.5001 11.25C12.5001 11.913 12.7635 12.5489 13.2323 13.0178C13.7012 13.4866 14.337 13.75 15.0001 13.75C15.6631 13.75 16.299 13.4866 16.7678 13.0178C17.2367 12.5489 17.5001 11.913 17.5001 11.25C17.5001 10.587 17.2367 9.95107 16.7678 9.48223C16.299 9.01339 15.6631 8.75 15.0001 8.75C14.337 8.75 13.7012 9.01339 13.2323 9.48223C12.7635 9.95107 12.5001 10.587 12.5001 11.25Z" stroke="#969AB8" stroke-width="2.5" stroke-linecap="round" stroke-linejoin="round"/>
</svg>
