<svg width="25" height="25" viewBox="0 0 25 25" fill="none" xmlns="http://www.w3.org/2000/svg">
<path d="M20.3125 6.25H23.4375V25H3.125V6.25H6.25V4.6875H7.8125V6.25H18.75V4.6875H20.3125V6.25ZM21.875 7.8125H20.3125V9.375H21.875V7.8125ZM18.75 7.8125H7.8125V9.375H18.75V7.8125ZM6.25 7.8125H4.6875V9.375H6.25V7.8125ZM4.6875 23.4375H21.875V10.9375H4.6875V23.4375ZM3.125 4.6875V3.125H1.5625V20.3125H0V1.5625H3.125V0H4.6875V1.5625H15.625V0H17.1875V1.5625H20.3125V3.125H17.1875V4.6875H15.625V3.125H4.6875V4.6875H3.125ZM7.8125 17.1875V15.625H9.375V17.1875H7.8125ZM10.9375 17.1875V15.625H12.5V17.1875H10.9375ZM14.0625 17.1875V15.625H15.625V17.1875H14.0625ZM17.1875 17.1875V15.625H18.75V17.1875H17.1875ZM7.8125 20.3125V18.75H9.375V20.3125H7.8125ZM10.9375 20.3125V18.75H12.5V20.3125H10.9375ZM14.0625 20.3125V18.75H15.625V20.3125H14.0625ZM10.9375 14.0625V12.5H12.5V14.0625H10.9375ZM14.0625 14.0625V12.5H15.625V14.0625H14.0625ZM17.1875 14.0625V12.5H18.75V14.0625H17.1875Z" fill="#969AB8"/>
</svg>
