<svg width="20" height="16" viewBox="0 0 20 16" fill="none" xmlns="http://www.w3.org/2000/svg">
<path d="M3.15021 2.39375C3.39134 1.83125 3.79233 1.35194 4.30343 1.01528C4.81452 0.678628 5.41321 0.499457 6.02522 0.500001H13.9777C15.2277 0.500001 16.3577 1.245 16.8502 2.39375L17.8402 4.70375C17.934 4.9225 18.1027 5.1025 18.3152 5.20875C18.9402 5.52125 19.384 6.1025 19.5215 6.78625L19.9402 8.885C19.9815 9.08625 20.0015 9.29125 20.0015 9.4975V10.0138C20.0015 11.0313 19.514 11.9425 18.7515 12.51V14.875C18.7515 15.0408 18.6856 15.1997 18.5684 15.3169C18.4512 15.4342 18.2922 15.5 18.1265 15.5H15.6265C15.4607 15.5 15.3017 15.4342 15.1845 15.3169C15.0673 15.1997 15.0015 15.0408 15.0015 14.875V13.2025C13.3865 13.2625 11.5702 13.3125 10.0015 13.3125C8.43271 13.3125 6.61646 13.2625 5.00146 13.2025V14.875C5.00146 15.0408 4.93562 15.1997 4.81841 15.3169C4.7012 15.4342 4.54223 15.5 4.37646 15.5H1.87646C1.7107 15.5 1.55173 15.4342 1.43452 15.3169C1.31731 15.1997 1.25146 15.0408 1.25146 14.875V12.51C0.488965 11.9425 0.00146484 11.0313 0.00146484 10.0138V9.4975C0.00167463 9.29182 0.0221908 9.08665 0.0627148 8.885L0.481465 6.785C0.618965 6.1025 1.06271 5.52 1.68646 5.20875C1.89996 5.10206 2.0687 4.92312 2.16271 4.70375L3.15272 2.39375H3.15021ZM3.75021 10.5C4.08174 10.5 4.39968 10.3683 4.6341 10.1339C4.86852 9.89946 5.00021 9.58152 5.00021 9.25C5.00021 8.91848 4.86852 8.60054 4.6341 8.36612C4.39968 8.1317 4.08174 8 3.75021 8C3.41869 8 3.10075 8.1317 2.86633 8.36612C2.63191 8.60054 2.50021 8.91848 2.50021 9.25C2.50021 9.58152 2.63191 9.89946 2.86633 10.1339C3.10075 10.3683 3.41869 10.5 3.75021 10.5ZM16.2502 10.5C16.5817 10.5 16.8997 10.3683 17.1341 10.1339C17.3685 9.89946 17.5002 9.58152 17.5002 9.25C17.5002 8.91848 17.3685 8.60054 17.1341 8.36612C16.8997 8.1317 16.5817 8 16.2502 8C15.9187 8 15.6008 8.1317 15.3663 8.36612C15.1319 8.60054 15.0002 8.91848 15.0002 9.25C15.0002 9.58152 15.1319 9.89946 15.3663 10.1339C15.6008 10.3683 15.9187 10.5 16.2502 10.5ZM7.50021 8C7.16869 8 6.85075 8.1317 6.61633 8.36612C6.38191 8.60054 6.25021 8.91848 6.25021 9.25C6.25021 9.58152 6.38191 9.89946 6.61633 10.1339C6.85075 10.3683 7.16869 10.5 7.50021 10.5H12.5002C12.8317 10.5 13.1497 10.3683 13.3841 10.1339C13.6185 9.89946 13.7502 9.58152 13.7502 9.25C13.7502 8.91848 13.6185 8.60054 13.3841 8.36612C13.1497 8.1317 12.8317 8 12.5002 8H7.50021ZM3.63271 4.48625C3.58385 4.58707 3.56243 4.69898 3.57059 4.81072C3.57875 4.92245 3.61621 5.03006 3.6792 5.12271C3.74219 5.21536 3.82849 5.28977 3.92939 5.33845C4.03029 5.38713 4.14224 5.40836 4.25397 5.4C5.39147 5.30875 8.44146 5.1875 10.0002 5.1875C11.559 5.1875 14.6102 5.30875 15.7465 5.4C15.8582 5.40836 15.9701 5.38713 16.071 5.33845C16.1719 5.28977 16.2582 5.21536 16.3212 5.12271C16.3842 5.03006 16.4217 4.92245 16.4298 4.81072C16.438 4.69898 16.4166 4.58707 16.3677 4.48625L15.1727 2.095C15.1208 1.99132 15.041 1.90413 14.9423 1.84321C14.8436 1.78228 14.7299 1.75001 14.614 1.75H5.38646C5.27049 1.75001 5.15681 1.78228 5.05813 1.84321C4.95945 1.90413 4.87967 1.99132 4.82771 2.095L3.63271 4.48625Z" fill="#969AB8"/>
</svg>
