<svg width="22" height="22" viewBox="0 0 22 22" fill="none" xmlns="http://www.w3.org/2000/svg">
<path d="M11.0001 7.15388V4.84619M11.0001 7.15388C9.72315 7.15388 8.69238 7.15388 8.69238 8.69235C8.69238 11 13.3078 11 13.3078 13.3077C13.3078 14.8462 12.277 14.8462 11.0001 14.8462M11.0001 7.15388C12.277 7.15388 13.3078 7.7385 13.3078 8.69235M8.69238 13.3077C8.69238 14.4616 9.72315 14.8462 11.0001 14.8462M11.0001 14.8462V17.1539" stroke="#969AB8" stroke-width="2" stroke-linecap="round" stroke-linejoin="round"/>
<path d="M11 21C16.5228 21 21 16.5228 21 11C21 5.47715 16.5228 1 11 1C5.47715 1 1 5.47715 1 11C1 16.5228 5.47715 21 11 21Z" stroke="#969AB8" stroke-width="2" stroke-linecap="round" stroke-linejoin="round"/>
</svg>
