<svg width="105" height="92" viewBox="0 0 105 92" fill="none" xmlns="http://www.w3.org/2000/svg">
<path d="M54.0579 20.8163C53.8582 21.4859 54.2396 22.1896 54.9089 22.3892L55.0017 22.4169L55.0045 22.4136C55.6464 22.5527 56.2933 22.174 56.4819 21.5373C58.2767 15.5066 63.9305 11.2942 70.2301 11.2942C70.9285 11.2942 71.4949 10.7278 71.4949 10.0294C71.4949 9.33107 70.9284 8.76467 70.2301 8.76467C62.5663 8.76467 56.1259 13.8672 54.0579 20.8163ZM54.0579 20.8163L54.2017 20.8592M54.0579 20.8163C54.0579 20.8163 54.0579 20.8164 54.0579 20.8164L54.2017 20.8592M54.2017 20.8592C54.0257 21.4492 54.3617 22.0695 54.9517 22.2455L54.2017 20.8592Z" fill="#93592C" stroke="#F9FFF9" stroke-width="0.3"/>
<path d="M85.8356 64.6518H79.1472C78.5317 64.6518 78.0325 64.1526 78.0325 63.5371C78.0325 62.9216 78.5317 62.4223 79.1472 62.4223H85.8356C95.0552 62.4223 102.557 54.9209 102.557 45.7013C102.557 36.4817 95.0552 28.9802 85.8356 28.9802H85.6747C85.3515 28.9802 85.0441 28.8401 84.8323 28.5956C84.6205 28.3512 84.525 28.0271 84.5712 27.707C84.6707 27.0127 84.7209 26.3152 84.7209 25.636C84.7209 17.6458 78.2194 11.1443 70.2292 11.1443C67.1206 11.1443 64.1562 12.1158 61.6559 13.9543C61.1065 14.358 60.3262 14.1788 60.0085 13.5744C52.9276 0.0909475 34.4329 -1.71975 24.8444 10.0097C20.8051 14.9512 19.218 21.3792 20.4898 27.6442C20.6299 28.3361 20.1004 28.9811 19.3973 28.9811H18.9506C9.73104 28.9811 2.22958 36.4825 2.22958 45.7021C2.22958 54.9217 9.73104 62.4232 18.9506 62.4232H25.639C26.2545 62.4232 26.7537 62.9224 26.7537 63.5379C26.7537 64.1534 26.2545 64.6527 25.639 64.6527H18.9506C8.50148 64.6527 0 56.1512 0 45.702C0 35.546 8.03082 27.23 18.0756 26.7714C17.132 20.2716 18.9363 13.7153 23.1181 8.59879C33.384 -3.9603 53.0579 -2.55259 61.3745 11.4517C64.0276 9.78835 67.0636 8.91576 70.2288 8.91576C79.9095 8.91576 87.5805 17.1553 86.9093 26.7818C96.8615 27.3399 104.786 35.6121 104.786 45.7012C104.786 56.1512 96.2842 64.6519 85.8351 64.6519L85.8356 64.6518Z" fill="#93592C"/>
<path d="M24.2248 62.9076C24.2248 78.3574 36.794 90.9264 52.2436 90.9264C67.6934 90.9264 80.2624 78.3572 80.2624 62.9076C80.2624 47.4578 67.6934 34.8888 52.2436 34.8888C36.7938 34.8888 24.2248 47.458 24.2248 62.9076ZM26.7548 62.9076C26.7548 48.8534 38.1892 37.4188 52.2436 37.4188C66.2978 37.4188 77.7324 48.8532 77.7324 62.9076C77.7324 76.9618 66.2978 88.3964 52.2436 88.3964C38.1894 88.3964 26.7548 76.962 26.7548 62.9076Z" fill="#93592C" stroke="#F9FFF9" stroke-width="0.3"/>
<path d="M51.787 74.1266C51.787 74.6601 52.2197 75.0927 52.7531 75.0927C53.2865 75.0927 53.7192 74.6607 53.7192 74.1266V52.9074C53.7192 52.374 53.2866 51.9413 52.7531 51.9413C52.2196 51.9413 51.787 52.374 51.787 52.9074V74.1266Z" fill="#93592C" stroke="#1B4965" stroke-width="0.3"/>
<path d="M52.753 54.2757L46.9074 60.1213C46.5304 60.499 45.9183 60.4988 45.5409 60.1214C45.1635 59.744 45.1635 59.1325 45.5409 58.7551L52.0697 52.2263C52.0697 52.2263 52.0698 52.2263 52.0698 52.2262C52.4467 51.8487 53.0588 51.8489 53.4361 52.2262L59.965 58.7551C60.3424 59.1325 60.3425 59.7438 59.9652 60.1212C59.7766 60.3106 59.5285 60.4044 59.2819 60.4044L52.753 54.2757ZM52.753 54.2757L58.5987 60.1214C58.7871 60.3098 59.035 60.4044 59.2818 60.4044L52.753 54.2757Z" fill="#93592C" stroke="#1B4965" stroke-width="0.3"/>
</svg>
