<svg width="22" height="19" viewBox="0 0 22 19" fill="none" xmlns="http://www.w3.org/2000/svg">
<path d="M11.75 1C11.75 0.801088 11.671 0.610322 11.5303 0.46967C11.3897 0.329018 11.1989 0.25 11 0.25C10.8011 0.25 10.6103 0.329018 10.4697 0.46967C10.329 0.610322 10.25 0.801088 10.25 1V3C10.25 3.19891 10.329 3.38968 10.4697 3.53033C10.6103 3.67098 10.8011 3.75 11 3.75C11.1989 3.75 11.3897 3.67098 11.5303 3.53033C11.671 3.38968 11.75 3.19891 11.75 3V1Z" fill="#969AB8"/>
<path fill-rule="evenodd" clip-rule="evenodd" d="M21.75 10.056C21.75 11.894 21.75 13.35 21.597 14.489C21.439 15.661 21.107 16.61 20.359 17.359C19.61 18.107 18.661 18.439 17.489 18.597C16.349 18.75 14.894 18.75 13.056 18.75H8.94398C7.10698 18.75 5.65098 18.75 4.51198 18.597C3.33998 18.439 2.39098 18.107 1.64198 17.359C0.893976 16.61 0.561977 15.661 0.403977 14.489C0.250977 13.349 0.250977 11.894 0.250977 10.056V9.12996C0.251977 8.74696 0.253976 8.38096 0.258976 8.03396C0.272976 7.05896 0.308977 6.22396 0.403977 5.51096C0.561977 4.33896 0.893976 3.38996 1.64198 2.64096C2.39098 1.89296 3.33998 1.56096 4.51198 1.40296C5.22798 1.30696 6.06998 1.27096 7.05298 1.25796L7.74998 1.25296C7.88137 1.25256 8.01155 1.27812 8.13305 1.32816C8.25454 1.3782 8.36496 1.45174 8.45796 1.54456C8.55097 1.63738 8.62473 1.74765 8.67501 1.86904C8.72529 1.99043 8.75111 2.12056 8.75098 2.25196V2.99996C8.75098 3.5967 8.98803 4.16899 9.40999 4.59095C9.83194 5.01291 10.4042 5.24996 11.001 5.24996C11.5977 5.24996 12.17 5.01291 12.592 4.59095C13.0139 4.16899 13.251 3.5967 13.251 2.99996V2.24996C13.251 1.69796 13.699 1.24996 14.251 1.25196C15.541 1.25796 16.61 1.28496 17.49 1.40296C18.662 1.56096 19.611 1.89296 20.36 2.64096C21.108 3.38996 21.44 4.33896 21.598 5.51096C21.751 6.65096 21.751 8.10596 21.751 9.94396L21.75 10.056ZM6.99998 7.74996C6.80106 7.74996 6.6103 7.82898 6.46965 7.96963C6.32899 8.11028 6.24998 8.30105 6.24998 8.49996C6.24998 8.69887 6.32899 8.88964 6.46965 9.03029C6.6103 9.17094 6.80106 9.24996 6.99998 9.24996H15C15.1989 9.24996 15.3897 9.17094 15.5303 9.03029C15.671 8.88964 15.75 8.69887 15.75 8.49996C15.75 8.30105 15.671 8.11028 15.5303 7.96963C15.3897 7.82898 15.1989 7.74996 15 7.74996H6.99998ZM6.99998 11.25C6.80106 11.25 6.6103 11.329 6.46965 11.4696C6.32899 11.6103 6.24998 11.801 6.24998 12C6.24998 12.1989 6.32899 12.3896 6.46965 12.5303C6.6103 12.6709 6.80106 12.75 6.99998 12.75H12.5C12.6989 12.75 12.8897 12.6709 13.0303 12.5303C13.171 12.3896 13.25 12.1989 13.25 12C13.25 11.801 13.171 11.6103 13.0303 11.4696C12.8897 11.329 12.6989 11.25 12.5 11.25H6.99998Z" fill="#969AB8"/>
</svg>
