<svg width="13" height="14" viewBox="0 0 13 14" fill="none" xmlns="http://www.w3.org/2000/svg">
<path d="M12.0478 11.8842L9.29126 9.12762C9.95491 8.24413 10.3132 7.16874 10.312 6.06376C10.312 3.2413 8.01567 0.945007 5.19321 0.945007C2.37075 0.945007 0.0744629 3.2413 0.0744629 6.06376C0.0744629 8.88621 2.37075 11.1825 5.19321 11.1825C6.29819 11.1837 7.37359 10.8255 8.25708 10.1618L11.0136 12.9183C11.1532 13.0431 11.3351 13.1097 11.5222 13.1044C11.7093 13.0992 11.8873 13.0225 12.0196 12.8902C12.152 12.7578 12.2286 12.5799 12.2339 12.3928C12.2391 12.2057 12.1725 12.0237 12.0478 11.8842V11.8842ZM1.53696 6.06376C1.53696 5.34062 1.7514 4.63372 2.15315 4.03245C2.5549 3.43119 3.12593 2.96255 3.79402 2.68582C4.46212 2.40909 5.19727 2.33668 5.90651 2.47776C6.61575 2.61884 7.26723 2.96706 7.77857 3.4784C8.2899 3.98973 8.63813 4.64121 8.77921 5.35046C8.92028 6.0597 8.84788 6.79485 8.57114 7.46294C8.29441 8.13103 7.82578 8.70206 7.22451 9.10381C6.62325 9.50557 5.91635 9.72 5.19321 9.72C4.22387 9.71884 3.29456 9.33326 2.60914 8.64783C1.92371 7.9624 1.53813 7.0331 1.53696 6.06376V6.06376Z" fill="#2D3748"/>
</svg>
