<svg width="21" height="20" viewBox="0 0 21 20" fill="none" xmlns="http://www.w3.org/2000/svg">
<path d="M13.4938 2.52235C12.7336 1.70165 11.6719 1.24969 10.5 1.24969C9.32191 1.24969 8.25668 1.69891 7.50004 2.51454C6.73519 3.33915 6.36254 4.45985 6.45004 5.67001C6.62348 8.05751 8.44027 9.99969 10.5 9.99969C12.5598 9.99969 14.3735 8.0579 14.5496 5.67079C14.6383 4.47157 14.2633 3.35321 13.4938 2.52235Z" fill="#718096"/>
<path d="M17.3752 18.7488H3.62522C3.44525 18.7511 3.26701 18.7133 3.10349 18.6381C2.93997 18.5629 2.79526 18.4522 2.67991 18.314C2.426 18.0105 2.32366 17.596 2.39944 17.1769C2.72913 15.348 3.75804 13.8117 5.37522 12.7332C6.81194 11.7757 8.63186 11.2488 10.5002 11.2488C12.3686 11.2488 14.1885 11.7761 15.6252 12.7332C17.2424 13.8113 18.2713 15.3476 18.601 17.1765C18.6768 17.5957 18.5744 18.0101 18.3205 18.3136C18.2052 18.4519 18.0605 18.5626 17.897 18.6379C17.7335 18.7132 17.5552 18.7511 17.3752 18.7488V18.7488Z" fill="#718096"/>
</svg>
