<svg width="20" height="12" viewBox="0 0 20 12" fill="none" xmlns="http://www.w3.org/2000/svg">
<path d="M5.35313 1.71429H7V4.28571H3.47813L4.42812 2.25268C4.57812 1.92857 4.94375 1.71429 5.35313 1.71429ZM8.5 4.28571V1.71429H11.0375C11.3406 1.71429 11.6281 1.83214 11.8188 2.03571L13.9187 4.28571H8.5ZM16.5063 4.3125L13.3813 0.964286C12.8125 0.353572 11.95 0 11.0375 0H5.35313C4.125 0 3.02187 0.640179 2.56875 1.61518L1.26875 4.40357C0.525 4.65536 0 5.27411 0 6V9C0 9.47411 0.446875 9.85714 1 9.85714H2.04063C2.27813 11.0732 3.5125 12 5 12C6.4875 12 7.72188 11.0732 7.95937 9.85714H12.0406C12.2781 11.0732 13.5125 12 15 12C16.4875 12 17.7219 11.0732 17.9594 9.85714H19C19.5531 9.85714 20 9.47411 20 9V7.71429C20 5.96786 18.475 4.52679 16.5063 4.3125ZM13.5844 9C13.648 8.83864 13.7485 8.68974 13.8798 8.56193C14.0112 8.43412 14.1709 8.32997 14.3496 8.25551C14.5283 8.18105 14.7226 8.13777 14.921 8.12819C15.1194 8.11861 15.318 8.14292 15.5054 8.1997C15.6927 8.25648 15.8651 8.34461 16.0123 8.45896C16.1596 8.57331 16.2789 8.71161 16.3633 8.86582C16.4477 9.02003 16.4955 9.18707 16.504 9.35725C16.5124 9.52743 16.4813 9.69735 16.4125 9.85714C16.3488 10.0185 16.2484 10.1674 16.117 10.2952C15.9857 10.423 15.826 10.5272 15.6473 10.6016C15.4685 10.6761 15.2743 10.7194 15.0759 10.729C14.8775 10.7385 14.6789 10.7142 14.4915 10.6574C14.3041 10.6007 14.1318 10.5125 13.9845 10.3982C13.8373 10.2838 13.7179 10.1455 13.6336 9.99133C13.5492 9.83712 13.5013 9.67007 13.4929 9.49989C13.4845 9.32971 13.5156 9.15979 13.5844 9ZM5 8.14286C5.39782 8.14286 5.77936 8.27832 6.06066 8.51943C6.34196 8.76055 6.5 9.08758 6.5 9.42857C6.5 9.76956 6.34196 10.0966 6.06066 10.3377C5.77936 10.5788 5.39782 10.7143 5 10.7143C4.60218 10.7143 4.22064 10.5788 3.93934 10.3377C3.65804 10.0966 3.5 9.76956 3.5 9.42857C3.5 9.08758 3.65804 8.76055 3.93934 8.51943C4.22064 8.27832 4.60218 8.14286 5 8.14286Z" fill="#4FD1C5"/>
</svg>
