<svg width="18" height="16" viewBox="0 0 18 16" fill="none" xmlns="http://www.w3.org/2000/svg">
<g clip-path="url(#clip0_17_1370)">
<path d="M4.16437 14.8827H3.10706C2.89675 14.8827 2.69506 14.8085 2.54634 14.6763C2.39763 14.5442 2.31409 14.3649 2.31409 14.1781V9.94993C2.31409 9.76303 2.39763 9.58379 2.54634 9.45164C2.69506 9.31948 2.89675 9.24524 3.10706 9.24524H4.16437C4.37468 9.24524 4.57637 9.31948 4.72508 9.45164C4.8738 9.58379 4.95734 9.76303 4.95734 9.94993V14.1781C4.95734 14.3649 4.8738 14.5442 4.72508 14.6763C4.57637 14.8085 4.37468 14.8827 4.16437 14.8827V14.8827Z" fill="#4FD1C5"/>
<path d="M11.5655 14.882H10.5082C10.2979 14.882 10.0962 14.8078 9.94747 14.6756C9.79876 14.5435 9.71521 14.3642 9.71521 14.1773V7.13047C9.71521 6.94357 9.79876 6.76433 9.94747 6.63218C10.0962 6.50002 10.2979 6.42578 10.5082 6.42578H11.5655C11.7758 6.42578 11.9775 6.50002 12.1262 6.63218C12.2749 6.76433 12.3585 6.94357 12.3585 7.13047V14.1773C12.3585 14.3642 12.2749 14.5435 12.1262 14.6756C11.9775 14.8078 11.7758 14.882 11.5655 14.882V14.882Z" fill="#4FD1C5"/>
<path d="M15.2661 14.8822H14.2087C13.9984 14.8822 13.7967 14.808 13.648 14.6758C13.4993 14.5437 13.4158 14.3644 13.4158 14.1776V3.84214C13.4158 3.65524 13.4993 3.476 13.648 3.34385C13.7967 3.21169 13.9984 3.13745 14.2087 3.13745H15.2661C15.4764 3.13745 15.6781 3.21169 15.8268 3.34385C15.9755 3.476 16.059 3.65524 16.059 3.84214V14.1776C16.059 14.3644 15.9755 14.5437 15.8268 14.6758C15.6781 14.808 15.4764 14.8822 15.2661 14.8822V14.8822Z" fill="#4FD1C5"/>
<path d="M7.86493 14.8821H6.80762C6.59731 14.8821 6.39562 14.8078 6.24691 14.6757C6.09819 14.5435 6.01465 14.3643 6.01465 14.1774V1.49302C6.01465 1.30612 6.09819 1.12688 6.24691 0.994728C6.39562 0.862574 6.59731 0.78833 6.80762 0.78833H7.86493C8.07524 0.78833 8.27693 0.862574 8.42565 0.994728C8.57436 1.12688 8.6579 1.30612 8.6579 1.49302V14.1774C8.6579 14.3643 8.57436 14.5435 8.42565 14.6757C8.27693 14.8078 8.07524 14.8821 7.86493 14.8821V14.8821Z" fill="#4FD1C5"/>
</g>
<defs>
<clipPath id="clip0_17_1370">
<rect width="16.9168" height="15.0333" fill="white" transform="translate(0.728149 0.318848)"/>
</clipPath>
</defs>
</svg>
