<svg width="18" height="16" viewBox="0 0 18 16" fill="none" xmlns="http://www.w3.org/2000/svg">
<path d="M1.7854 11.4787C1.7854 11.9147 1.98034 12.333 2.32733 12.6413C2.67433 12.9497 3.14495 13.1229 3.63568 13.1229H14.7373C15.2281 13.1229 15.6987 12.9497 16.0457 12.6413C16.3927 12.333 16.5876 11.9147 16.5876 11.4787V6.95691H1.7854V11.4787ZM3.96609 9.24714C3.96609 9.01353 4.07052 8.78948 4.25641 8.62428C4.4423 8.45909 4.69442 8.36628 4.95731 8.36628H6.54326C6.80615 8.36628 7.05827 8.45909 7.24416 8.62428C7.43005 8.78948 7.53448 9.01353 7.53448 9.24714V9.83438C7.53448 10.068 7.43005 10.2921 7.24416 10.4572C7.05827 10.6224 6.80615 10.7152 6.54326 10.7152H4.95731C4.69442 10.7152 4.4423 10.6224 4.25641 10.4572C4.07052 10.2921 3.96609 10.068 3.96609 9.83438V9.24714Z" fill="#4FD1C5"/>
<path d="M14.7373 2.78711H3.63568C3.14495 2.78711 2.67433 2.96034 2.32733 3.26871C1.98034 3.57707 1.7854 3.99529 1.7854 4.43138V5.19479H16.5876V4.43138C16.5876 3.99529 16.3927 3.57707 16.0457 3.26871C15.6987 2.96034 15.2281 2.78711 14.7373 2.78711V2.78711Z" fill="#4FD1C5"/>
</svg>
