<svg width="18" height="16" viewBox="0 0 18 16" fill="none" xmlns="http://www.w3.org/2000/svg">
<path d="M14.8695 7.46929H10.2438C9.82318 7.46929 9.41979 7.3208 9.12236 7.05649C8.82494 6.79218 8.65785 6.4337 8.65785 6.05991V1.94923C8.65785 1.91809 8.64392 1.88821 8.61914 1.86619C8.59435 1.84416 8.56074 1.83179 8.52569 1.83179H5.48594C4.92511 1.83179 4.38726 2.02977 3.99069 2.38218C3.59413 2.73459 3.37134 3.21257 3.37134 3.71095V13.1068C3.37134 13.6052 3.59413 14.0831 3.99069 14.4356C4.38726 14.788 4.92511 14.9859 5.48594 14.9859H12.8871C13.4479 14.9859 13.9857 14.788 14.3823 14.4356C14.7789 14.0831 15.0017 13.6052 15.0017 13.1068V7.58673C15.0017 7.55558 14.9877 7.52571 14.963 7.50368C14.9382 7.48166 14.9046 7.46929 14.8695 7.46929Z" fill="#4FD1C5"/>
<path d="M14.5795 6.4303L9.82788 2.20775C9.81864 2.19959 9.80689 2.19403 9.79411 2.19179C9.78133 2.18954 9.76808 2.19071 9.75604 2.19513C9.744 2.19955 9.7337 2.20704 9.72643 2.21666C9.71917 2.22627 9.71526 2.23757 9.71521 2.24915V6.06063C9.71521 6.18523 9.77091 6.30472 9.87005 6.39282C9.96919 6.48093 10.1037 6.53042 10.2439 6.53042H14.5329C14.5459 6.53037 14.5586 6.5269 14.5694 6.52045C14.5803 6.51399 14.5887 6.50484 14.5937 6.49414C14.5986 6.48344 14.5999 6.47167 14.5974 6.46031C14.5949 6.44895 14.5886 6.43851 14.5795 6.4303V6.4303Z" fill="#4FD1C5"/>
</svg>
