<svg width="18" height="16" viewBox="0 0 18 16" fill="none" xmlns="http://www.w3.org/2000/svg">
<g clip-path="url(#clip0_17_1375)">
<path d="M9.37018 3.06735C9.32099 3.02554 9.25554 3.0022 9.18746 3.0022C9.11939 3.0022 9.05394 3.02554 9.00475 3.06735L2.92196 8.23124C2.89612 8.2532 2.87557 8.27959 2.86155 8.30881C2.84752 8.33803 2.84031 8.36948 2.84035 8.40125L2.83936 13.2477C2.83936 13.4969 2.95075 13.7359 3.14903 13.9121C3.34731 14.0883 3.61624 14.1873 3.89666 14.1873H7.07187C7.21207 14.1873 7.34654 14.1378 7.44568 14.0497C7.54482 13.9616 7.60052 13.8421 7.60052 13.7175V9.7243C7.60052 9.662 7.62837 9.60225 7.67794 9.5582C7.72751 9.51415 7.79474 9.4894 7.86484 9.4894H10.5081C10.5782 9.4894 10.6454 9.51415 10.695 9.5582C10.7446 9.60225 10.7724 9.662 10.7724 9.7243V13.7175C10.7724 13.8421 10.8281 13.9616 10.9273 14.0497C11.0264 14.1378 11.1609 14.1873 11.3011 14.1873H14.475C14.7554 14.1873 15.0243 14.0883 15.2226 13.9121C15.4209 13.7359 15.5323 13.4969 15.5323 13.2477V8.40125C15.5323 8.36948 15.5251 8.33803 15.5111 8.30881C15.497 8.27959 15.4765 8.2532 15.4507 8.23124L9.37018 3.06735Z" fill="#4FD1C5"/>
<path d="M16.9484 7.26283L14.477 5.16169V1.97327C14.477 1.84868 14.4213 1.72918 14.3222 1.64108C14.223 1.55298 14.0886 1.50348 13.9483 1.50348H12.3624C12.2222 1.50348 12.0877 1.55298 11.9886 1.64108C11.8894 1.72918 11.8337 1.84868 11.8337 1.97327V2.91286L9.92003 1.28679C9.74095 1.12589 9.47464 1.03369 9.18686 1.03369C8.90006 1.03369 8.63442 1.12589 8.45534 1.28709L1.42758 7.26225C1.22207 7.43842 1.1963 7.72822 1.38331 7.91907C1.43027 7.96725 1.48777 8.00643 1.55231 8.03422C1.61685 8.06202 1.68708 8.07786 1.75873 8.08077C1.83038 8.08368 1.90194 8.07361 1.96907 8.05116C2.03619 8.02871 2.09748 7.99436 2.14919 7.9502L9.00513 2.12831C9.05432 2.08649 9.11977 2.06315 9.18785 2.06315C9.25592 2.06315 9.32137 2.08649 9.37056 2.12831L16.2272 7.9502C16.3282 8.03627 16.4635 8.08325 16.6034 8.08083C16.7433 8.0784 16.8764 8.02678 16.9736 7.93728C17.1764 7.75054 17.1596 7.44224 16.9484 7.26283Z" fill="#4FD1C5"/>
</g>
<defs>
<clipPath id="clip0_17_1375">
<rect width="16.9168" height="15.0333" fill="white" transform="translate(0.728027 0.0932617)"/>
</clipPath>
</defs>
</svg>
