<svg width="18" height="21" viewBox="0 0 18 21" fill="none" xmlns="http://www.w3.org/2000/svg">
<path d="M2.97249 11.0177C2.84284 10.8803 2.77002 10.6941 2.77002 10.5C2.77002 10.3059 2.84284 10.1197 2.97249 9.98231L4.81864 8.02883C4.94988 7.89943 5.12346 7.82898 5.30282 7.83233C5.48217 7.83568 5.6533 7.91256 5.78014 8.04678C5.90698 8.18099 5.97964 8.36207 5.9828 8.55185C5.98597 8.74163 5.91939 8.92531 5.7971 9.06417L5.13249 9.76743H11.7694C11.953 9.76743 12.1291 9.84461 12.2589 9.98199C12.3888 10.1194 12.4617 10.3057 12.4617 10.5C12.4617 10.6943 12.3888 10.8806 12.2589 11.018C12.1291 11.1554 11.953 11.2325 11.7694 11.2325H5.13249L5.7971 11.9358C5.86512 12.0029 5.91968 12.0837 5.95752 12.1736C5.99535 12.2635 6.0157 12.3605 6.01734 12.4588C6.01898 12.5572 6.00188 12.6549 5.96706 12.7461C5.93224 12.8373 5.88042 12.9202 5.81468 12.9897C5.74894 13.0593 5.67063 13.1141 5.58442 13.151C5.49822 13.1878 5.40589 13.2059 5.31293 13.2042C5.21997 13.2025 5.1283 13.1809 5.04338 13.1409C4.95845 13.1009 4.88202 13.0431 4.81864 12.9712L2.97249 11.0177Z" fill="#4FD1C5"/>
<path fill-rule="evenodd" clip-rule="evenodd" d="M10.7954 0H11.82C13.0828 0 14.1 -1.45546e-08 14.9003 0.114279C15.7311 0.231488 16.4308 0.485442 16.9865 1.07247C17.5422 1.66047 17.7803 2.40084 17.8929 3.27991C18 4.12674 18 5.20409 18 6.5393V14.4607C18 15.7959 18 16.8733 17.8929 17.7201C17.7812 18.5992 17.5422 19.3395 16.9865 19.9275C16.4308 20.5155 15.7311 20.7675 14.9003 20.8867C14.1 21 13.0818 21 11.82 21H10.7954C9.53354 21 8.51538 21 7.71508 20.8867C6.88431 20.7675 6.18462 20.5155 5.62892 19.9275C5.26154 19.5368 5.03169 19.0797 4.88585 18.5581C4.008 18.5572 3.276 18.5464 2.68338 18.4624C1.97815 18.3618 1.36708 18.145 0.878769 17.6283C0.390461 17.1116 0.185539 16.466 0.0904616 15.7187C4.81422e-08 15.0057 0 14.1013 0 12.9936V8.00637C0 6.89972 4.81422e-08 5.99623 0.0904616 5.28126C0.185539 4.536 0.390461 3.8894 0.878769 3.3727C1.36708 2.856 1.97723 2.63916 2.68338 2.53856C3.276 2.45456 4.008 2.44381 4.88585 2.44284C5.03169 1.92126 5.26154 1.46316 5.62985 1.07344C6.18462 0.485442 6.88523 0.233442 7.716 0.115256C8.51538 0.000976775 9.53354 0.00097679 10.7954 0.00097679V0ZM4.61723 15.3876C4.62092 16.0176 4.63015 16.5841 4.66338 17.092C3.89354 17.0891 3.32123 17.0745 2.868 17.01C2.316 16.9319 2.04646 16.7912 1.85815 16.592C1.66985 16.3937 1.53692 16.1075 1.46308 15.5234C1.38646 14.9188 1.38462 14.114 1.38462 12.9419V8.05814C1.38462 6.88605 1.38646 6.08121 1.46308 5.4766C1.53692 4.89251 1.66985 4.6073 1.85815 4.40805C2.04554 4.20879 2.316 4.06814 2.868 3.99C3.32123 3.92553 3.89354 3.91186 4.66431 3.90795C4.63015 4.41586 4.62092 4.98237 4.61723 5.61237C4.61625 5.80666 4.68825 5.9934 4.81739 6.13151C4.94653 6.26963 5.12223 6.3478 5.30585 6.34884C5.48946 6.34987 5.66594 6.27369 5.79646 6.13704C5.92699 6.00039 6.00087 5.81447 6.00185 5.62019C6.00738 4.5526 6.03323 3.79563 6.13292 3.22033C6.22985 2.66749 6.384 2.34614 6.60831 2.10879C6.864 1.83823 7.22308 1.66242 7.90062 1.56572C8.59754 1.46707 9.52154 1.46512 10.8462 1.46512H11.7692C13.0948 1.46512 14.0188 1.46707 14.7157 1.56572C15.3932 1.66242 15.7514 1.83921 16.008 2.10879C16.2628 2.37935 16.4289 2.75833 16.5203 3.47623C16.6145 4.2127 16.6154 5.1914 16.6154 6.59302V14.407C16.6154 15.8086 16.6145 16.7863 16.5203 17.5247C16.4289 18.2417 16.2628 18.6207 16.0071 18.8912C15.7514 19.1618 15.3932 19.3376 14.7157 19.4343C14.0188 19.5329 13.0948 19.5349 11.7692 19.5349H10.8462C9.52154 19.5349 8.59754 19.5329 7.89969 19.4343C7.22308 19.3376 6.864 19.1608 6.60831 18.8912C6.384 18.6529 6.22985 18.3325 6.13292 17.7797C6.03323 17.2044 6.00738 16.4474 6.00185 15.3798C6.00136 15.2836 5.98297 15.1885 5.94773 15.0998C5.91249 15.0111 5.86109 14.9306 5.79646 14.863C5.73183 14.7953 5.65524 14.7418 5.57106 14.7054C5.48688 14.6691 5.39676 14.6506 5.30585 14.6512C5.21493 14.6517 5.125 14.6711 5.04119 14.7084C4.95738 14.7457 4.88134 14.8001 4.81739 14.8685C4.75345 14.9369 4.70286 15.0179 4.66852 15.107C4.63417 15.1961 4.61675 15.2914 4.61723 15.3876Z" fill="#4FD1C5"/>
</svg>
