<svg width="18" height="16" viewBox="0 0 18 16" fill="none" xmlns="http://www.w3.org/2000/svg">
<g clip-path="url(#clip0_17_1349)">
<path d="M16.5098 1.13634C16.5037 1.11037 16.4895 1.08647 16.4687 1.06743C16.448 1.0484 16.4215 1.03502 16.3925 1.02887C14.4573 0.608407 9.9859 2.10675 7.56336 4.25869C7.13128 4.63956 6.73737 5.05317 6.38612 5.49483C5.63907 5.4361 4.89202 5.48514 4.25532 5.73178C2.4589 6.43441 1.93587 8.26777 1.79016 9.05643C1.78189 9.0996 1.78501 9.14388 1.79926 9.1858C1.81352 9.22771 1.83852 9.26612 1.87231 9.29799C1.90609 9.32986 1.94774 9.35433 1.99397 9.36948C2.0402 9.38463 2.08975 9.39004 2.13874 9.38529L5.02352 9.10253C5.02558 9.29581 5.0387 9.48887 5.06284 9.68096C5.07735 9.81436 5.14399 9.93902 5.25117 10.0333L6.36827 11.0237C6.47447 11.1188 6.6147 11.178 6.76476 11.191C6.97971 11.2124 7.19575 11.2241 7.41203 11.226L7.0955 13.7864C7.09022 13.8299 7.09636 13.8739 7.11343 13.9149C7.13049 13.956 7.15803 13.993 7.19388 14.023C7.22973 14.053 7.27292 14.0752 7.32005 14.0879C7.36719 14.1006 7.41699 14.1034 7.46556 14.0961C8.35138 13.9699 10.4181 13.5051 11.2041 11.9087C11.4817 11.3428 11.5385 10.6822 11.4744 10.0216C11.9726 9.70939 12.4392 9.35925 12.869 8.9751C15.2992 6.82639 16.9757 2.94151 16.5098 1.13634ZM10.4445 6.4118C10.2226 6.21473 10.0714 5.96361 10.0102 5.69019C9.94889 5.41677 9.98024 5.13335 10.1002 4.87576C10.2203 4.61818 10.4235 4.39801 10.6844 4.24311C10.9452 4.0882 11.2519 4.00552 11.5656 4.00552C11.8793 4.00552 12.186 4.0882 12.4468 4.24311C12.7076 4.39801 12.9109 4.61818 13.0309 4.87576C13.1509 5.13335 13.1823 5.41677 13.121 5.69019C13.0597 5.96361 12.9085 6.21473 12.6866 6.4118C12.5395 6.54275 12.3647 6.64664 12.1724 6.71752C11.98 6.78839 11.7738 6.82488 11.5656 6.82488C11.3573 6.82488 11.1511 6.78839 10.9588 6.71752C10.7664 6.64664 10.5916 6.54275 10.4445 6.4118Z" fill="#4FD1C5"/>
<path d="M6.29231 11.741C6.11124 11.9022 5.82082 11.965 5.47125 12.0187C4.68587 12.1377 3.99235 11.5346 4.13343 10.829C4.18729 10.5615 4.34654 10.1865 4.44566 10.0985C4.46733 10.0796 4.48175 10.0551 4.48688 10.0285C4.49201 10.002 4.48758 9.97462 4.47423 9.9504C4.46088 9.92618 4.43928 9.90632 4.4125 9.89363C4.38573 9.88094 4.35513 9.87607 4.32507 9.87972C3.88587 9.92747 3.47729 10.1044 3.16435 10.3824C2.38756 11.0733 2.31421 13.6369 2.31421 13.6369C2.31421 13.6369 5.20064 13.5717 5.97743 12.8808C6.2912 12.6029 6.49057 12.2393 6.54342 11.8484C6.55564 11.7257 6.38746 11.6526 6.29231 11.741Z" fill="#4FD1C5"/>
</g>
<defs>
<clipPath id="clip0_17_1349">
<rect width="16.9168" height="15.0333" fill="white" transform="translate(0.728149 0.012207)"/>
</clipPath>
</defs>
</svg>
