<svg width="18" height="16" viewBox="0 0 18 16" fill="none" xmlns="http://www.w3.org/2000/svg">
<path d="M11.7187 2.66816C11.0758 2.05127 10.1777 1.71155 9.18651 1.71155C8.19 1.71155 7.28898 2.04921 6.64898 2.66229C6.00205 3.28212 5.68684 4.12451 5.76085 5.03415C5.90755 6.82875 7.44427 8.28863 9.18651 8.28863C10.9287 8.28863 12.4628 6.82905 12.6118 5.03474C12.6868 4.13332 12.3696 3.29269 11.7187 2.66816Z" fill="#4FD1C5"/>
<path d="M15.0017 14.865H3.37133C3.2191 14.8668 3.06835 14.8384 2.93003 14.7818C2.79171 14.7253 2.66932 14.6421 2.57175 14.5382C2.35698 14.3101 2.27042 13.9986 2.33452 13.6835C2.61338 12.3088 3.48367 11.154 4.85156 10.3433C6.06679 9.62363 7.60616 9.22754 9.18649 9.22754C10.7668 9.22754 12.3062 9.62393 13.5214 10.3433C14.8893 11.1537 15.7596 12.3085 16.0385 13.6832C16.1026 13.9983 16.016 14.3098 15.8012 14.5379C15.7037 14.6419 15.5813 14.7251 15.443 14.7817C15.3047 14.8383 15.1539 14.8668 15.0017 14.865V14.865Z" fill="#4FD1C5"/>
</svg>
