<svg width="18" height="16" viewBox="0 0 18 16" fill="none" xmlns="http://www.w3.org/2000/svg">
<path d="M16.2428 4.09808C16.2047 4.03229 16.1497 3.97542 16.0822 3.93209C16.0148 3.88877 15.9367 3.86022 15.8545 3.84878C15.7722 3.83733 15.6881 3.84331 15.6089 3.86622C15.5298 3.88913 15.4578 3.92833 15.399 3.98063L13.3689 5.78581C13.2693 5.87308 13.135 5.922 12.9951 5.922C12.8552 5.922 12.7209 5.87308 12.6212 5.78581L11.7437 5.00478C11.6946 4.96115 11.6556 4.90936 11.629 4.85236C11.6025 4.79535 11.5888 4.73425 11.5888 4.67255C11.5888 4.61085 11.6025 4.54975 11.629 4.49274C11.6556 4.43574 11.6946 4.38394 11.7437 4.34032L13.7651 2.54366C13.8257 2.48982 13.8706 2.42369 13.8961 2.35097C13.9216 2.27826 13.9267 2.20113 13.9112 2.12624C13.8956 2.05136 13.8599 1.98095 13.8069 1.92108C13.7539 1.86122 13.6854 1.81369 13.6072 1.7826V1.7826C12.0803 1.17598 10.1746 1.4925 8.97287 2.55247C7.95191 3.45329 7.64761 4.86091 8.13859 6.41445C8.16507 6.49729 8.16522 6.58503 8.13903 6.66795C8.11285 6.75087 8.06135 6.82573 7.99024 6.88424L2.48963 11.3487C2.27534 11.5197 2.10249 11.7277 1.98163 11.96C1.86077 12.1923 1.79443 12.444 1.78666 12.6998C1.77889 12.9557 1.82984 13.2102 1.93642 13.448C2.043 13.6857 2.20296 13.9017 2.40656 14.0827C2.61015 14.2637 2.8531 14.406 3.1206 14.5008C3.38809 14.5956 3.67452 14.641 3.9624 14.6342C4.25029 14.6274 4.5336 14.5686 4.79505 14.4613C5.05651 14.354 5.29062 14.2005 5.48311 14.0101L10.5608 9.11105C10.6257 9.04867 10.7085 9.00321 10.8003 8.97957C10.8922 8.95592 10.9895 8.95499 11.0819 8.97687C11.5796 9.09805 12.093 9.16093 12.609 9.1639C13.7126 9.1639 14.681 8.8465 15.3795 8.23489C16.673 7.1024 16.8703 5.18154 16.2428 4.09808ZM4.01578 13.6886C3.79817 13.7097 3.57856 13.6703 3.38724 13.5757C3.19593 13.4812 3.04235 13.3362 2.9477 13.1608C2.85305 12.9854 2.82199 12.7882 2.85882 12.5965C2.89564 12.4047 2.99854 12.2279 3.15329 12.0903C3.30805 11.9527 3.50704 11.8612 3.72281 11.8284C3.93858 11.7956 4.16048 11.8231 4.35789 11.9072C4.5553 11.9912 4.71849 12.1277 4.82493 12.2977C4.93137 12.4676 4.97583 12.6628 4.95215 12.8562C4.9261 13.0689 4.81908 13.2674 4.64881 13.4188C4.47853 13.5702 4.2552 13.6654 4.01578 13.6886V13.6886Z" fill="#4FD1C5"/>
</svg>
