<svg width="22" height="24" viewBox="0 0 22 24" fill="none" xmlns="http://www.w3.org/2000/svg">
<path d="M6.33917 13.1667C6.33917 13.4761 6.21625 13.7728 5.99746 13.9916C5.77867 14.2104 5.48192 14.3333 5.1725 14.3333C4.86308 14.3333 4.56633 14.2104 4.34754 13.9916C4.12875 13.7728 4.00583 13.4761 4.00583 13.1667C4.00583 12.8573 4.12875 12.5605 4.34754 12.3417C4.56633 12.1229 4.86308 12 5.1725 12C5.48192 12 5.77867 12.1229 5.99746 12.3417C6.21625 12.5605 6.33917 12.8573 6.33917 13.1667ZM16.8333 14.3333C17.1428 14.3333 17.4395 14.2104 17.6583 13.9916C17.8771 13.7728 18 13.4761 18 13.1667C18 12.8573 17.8771 12.5605 17.6583 12.3417C17.4395 12.1229 17.1428 12 16.8333 12C16.5239 12 16.2272 12.1229 16.0084 12.3417C15.7896 12.5605 15.6667 12.8573 15.6667 13.1667C15.6667 13.4761 15.7896 13.7728 16.0084 13.9916C16.2272 14.2104 16.5239 14.3333 16.8333 14.3333ZM8.06467 15.2083C8.06467 14.9763 8.15685 14.7537 8.32095 14.5896C8.48504 14.4255 8.7076 14.3333 8.93967 14.3333H13.0055C13.2376 14.3333 13.4601 14.4255 13.6242 14.5896C13.7883 14.7537 13.8805 14.9763 13.8805 15.2083C13.8805 15.4404 13.7883 15.663 13.6242 15.8271C13.4601 15.9912 13.2376 16.0833 13.0055 16.0833H8.93967C8.7076 16.0833 8.48504 15.9912 8.32095 15.8271C8.15685 15.663 8.06467 15.4404 8.06467 15.2083ZM7.81033 0.324005C7.57827 0.324005 7.35571 0.416192 7.19162 0.580287C7.02752 0.744381 6.93533 0.966941 6.93533 1.19901V3.25001H6.16067C5.34776 3.24975 4.55629 3.51075 3.90301 3.99452C3.24972 4.47829 2.7692 5.15921 2.53233 5.93684L2.4635 6.16667H1.375C1.14294 6.16667 0.920376 6.25886 0.756282 6.42295C0.592187 6.58705 0.5 6.80961 0.5 7.04167C0.5 7.27374 0.592187 7.49629 0.756282 7.66039C0.920376 7.82448 1.14294 7.91667 1.375 7.91667H1.99683L1.76117 8.8815C1.37593 9.11562 1.05752 9.44504 0.836615 9.838C0.615715 10.231 0.499784 10.6742 0.5 11.125V21.0417C0.5 22.1687 1.41467 23.0833 2.54167 23.0833H4.29167C4.83315 23.0833 5.35246 22.8682 5.73534 22.4853C6.11823 22.1025 6.33333 21.5832 6.33333 21.0417V19.5833H15.6667V21.0417C15.6667 22.1687 16.5813 23.0833 17.7083 23.0833H19.4583C19.9998 23.0833 20.5191 22.8682 20.902 22.4853C21.2849 22.1025 21.5 21.5832 21.5 21.0417V11.125C21.5 10.1742 20.9937 9.34 20.2365 8.88034L19.9962 7.91667H20.625C20.8571 7.91667 21.0796 7.82448 21.2437 7.66039C21.4078 7.49629 21.5 7.27374 21.5 7.04167C21.5 6.80961 21.4078 6.58705 21.2437 6.42295C21.0796 6.25886 20.8571 6.16667 20.625 6.16667H19.526L19.4618 5.952C19.2275 5.17097 18.7476 4.4863 18.0934 3.99957C17.4391 3.51283 16.6454 3.24998 15.83 3.25001H15.0833V1.19901C15.0833 0.966941 14.9911 0.744381 14.8271 0.580287C14.663 0.416192 14.4404 0.324005 14.2083 0.324005H7.81033ZM13.3333 3.25001H8.68533V2.07401H13.3333V3.25001ZM6.16067 5H15.83C16.269 5.00004 16.6963 5.14159 17.0486 5.40366C17.4008 5.66572 17.6591 6.03434 17.7853 6.45484L18.0303 7.27384L18.3383 8.5H3.65583L3.95567 7.27267L4.20767 6.44667C4.33519 6.02808 4.59383 5.66154 4.94545 5.40108C5.29708 5.14061 5.72308 5.00001 6.16067 5ZM2.25 17.8333V11.125C2.25 10.8929 2.34219 10.6704 2.50628 10.5063C2.67038 10.3422 2.89294 10.25 3.125 10.25H18.875C19.1071 10.25 19.3296 10.3422 19.4937 10.5063C19.6578 10.6704 19.75 10.8929 19.75 11.125V17.8333H2.25ZM2.25 21.0417V19.5833H4.58333V21.0417C4.58333 21.119 4.5526 21.1932 4.49791 21.2479C4.44321 21.3026 4.36902 21.3333 4.29167 21.3333H2.54167C2.46431 21.3333 2.39013 21.3026 2.33543 21.2479C2.28073 21.1932 2.25 21.119 2.25 21.0417ZM19.75 19.5833V21.0417C19.75 21.119 19.7193 21.1932 19.6646 21.2479C19.6099 21.3026 19.5357 21.3333 19.4583 21.3333H17.7083C17.631 21.3333 17.5568 21.3026 17.5021 21.2479C17.4474 21.1932 17.4167 21.119 17.4167 21.0417V19.5833H19.75Z" fill="black"/>
</svg>
