<svg width="24" height="24" viewBox="0 0 24 24" fill="none" xmlns="http://www.w3.org/2000/svg">
<path d="M1.07307 18.9043C1.15407 19.2562 1.32617 19.5806 1.5721 19.8449C1.81803 20.1093 2.12914 20.3043 2.47424 20.4105L2.68424 21.3333H2.66674V23.6667H21.3334V21.3333H5.79691C5.81222 21.2255 5.80946 21.1159 5.78874 21.009L5.56007 20.0022L17.6432 17.2535L17.8719 18.2603C17.9328 18.5275 18.0973 18.7595 18.3292 18.9054C18.5611 19.0513 18.8414 19.0992 19.1086 19.0385L20.1154 18.8087C20.2477 18.7787 20.3729 18.7228 20.4836 18.6444C20.5944 18.566 20.6886 18.4665 20.7608 18.3517C20.8331 18.2368 20.882 18.1088 20.9048 17.975C20.9276 17.8413 20.9238 17.7043 20.8936 17.572L20.6007 16.2852C21.1211 15.7998 21.3824 15.0648 21.2132 14.3217L20.5249 11.3C20.4414 10.936 20.2601 10.6016 20.0007 10.3329C19.7413 10.0642 19.4135 9.8714 19.0526 9.77518L16.6621 5.83418C16.3096 5.25515 15.7841 4.80144 15.1599 4.53706C14.5357 4.27268 13.8442 4.21098 13.1831 4.36068L4.00374 6.44901C3.34187 6.59894 2.74402 6.9535 2.29504 7.46238C1.84605 7.97126 1.56872 8.60862 1.50241 9.28401L1.05091 13.8713C0.76772 14.1145 0.556168 14.4302 0.438998 14.7846C0.321829 15.139 0.303473 15.5186 0.385906 15.8827L1.07307 18.9043ZM4.59641 18.1017C4.39808 18.1469 4.19279 18.1526 3.99226 18.1184C3.79173 18.0843 3.59989 18.011 3.42769 17.9027C3.2555 17.7944 3.10631 17.6533 2.98866 17.4873C2.871 17.3214 2.78719 17.1339 2.74199 16.9356C2.69679 16.7373 2.6911 16.532 2.72524 16.3314C2.75938 16.1309 2.83269 15.9391 2.94097 15.7669C3.04925 15.5947 3.19039 15.4455 3.35632 15.3278C3.52226 15.2102 3.70974 15.1264 3.90807 15.0812C4.30862 14.9899 4.72901 15.0615 5.07678 15.2802C5.42455 15.4988 5.67121 15.8467 5.76249 16.2473C5.85377 16.6478 5.78219 17.0682 5.56351 17.416C5.34483 17.7637 4.99695 18.0104 4.59641 18.1017ZM17.6887 15.1243C17.487 15.1798 17.2762 15.1938 17.0689 15.1656C16.8616 15.1373 16.6622 15.0674 16.4826 14.96C16.3031 14.8526 16.1472 14.7099 16.0243 14.5406C15.9014 14.3713 15.8141 14.1789 15.7675 13.9749C15.721 13.771 15.7163 13.5597 15.7536 13.3538C15.791 13.148 15.8696 12.9519 15.9848 12.7772C16.1 12.6026 16.2494 12.4531 16.424 12.3378C16.5985 12.2225 16.7946 12.1437 17.0004 12.1062C17.393 12.0346 17.7981 12.1174 18.1313 12.3372C18.4644 12.557 18.6999 12.8968 18.7886 13.2859C18.8774 13.675 18.8125 14.0834 18.6076 14.4259C18.4027 14.7684 18.0736 15.0186 17.6887 15.1243ZM4.52057 8.72401L13.7011 6.63451C13.885 6.59295 14.0774 6.6101 14.2511 6.68355C14.4248 6.75701 14.5711 6.88307 14.6694 7.04401L16.5186 10.0925L15.8582 10.243L4.13791 12.9112L3.47524 13.0617L3.82407 9.51268C3.84285 9.3248 3.9202 9.14758 4.04518 9.00606C4.17016 8.86454 4.33646 8.76587 4.52057 8.72401ZM19.4726 2.66668L17.8334 0.333344L17.2501 3.83334L20.1667 8.50001L23.6667 9.66668L21.3334 6.70451L23.6667 5.61601L21.3334 4.52751L23.6667 0.333344L19.4726 2.66668Z" fill="black"/>
</svg>
