<svg width="24" height="24" viewBox="0 0 24 24" fill="none" xmlns="http://www.w3.org/2000/svg">
<path d="M10.8333 17.8333H13.1667V13.1667H17.8333V10.8333H13.1667V6.16668H10.8333V10.8333H6.16667V13.1667H10.8333V17.8333ZM12 23.6667C10.3861 23.6667 8.86945 23.3602 7.45 22.7473C6.03056 22.1352 4.79584 21.3042 3.74584 20.2542C2.69584 19.2042 1.86478 17.9695 1.25267 16.55C0.63978 15.1306 0.333336 13.6139 0.333336 12C0.333336 10.3861 0.63978 8.86946 1.25267 7.45001C1.86478 6.03057 2.69584 4.79584 3.74584 3.74584C4.79584 2.69584 6.03056 1.8644 7.45 1.25151C8.86945 0.639399 10.3861 0.333344 12 0.333344C13.6139 0.333344 15.1306 0.639399 16.55 1.25151C17.9694 1.8644 19.2042 2.69584 20.2542 3.74584C21.3042 4.79584 22.1352 6.03057 22.7473 7.45001C23.3602 8.86946 23.6667 10.3861 23.6667 12C23.6667 13.6139 23.3602 15.1306 22.7473 16.55C22.1352 17.9695 21.3042 19.2042 20.2542 20.2542C19.2042 21.3042 17.9694 22.1352 16.55 22.7473C15.1306 23.3602 13.6139 23.6667 12 23.6667ZM12 21.3333C14.6056 21.3333 16.8125 20.4292 18.6208 18.6208C20.4292 16.8125 21.3333 14.6056 21.3333 12C21.3333 9.39445 20.4292 7.18751 18.6208 5.37918C16.8125 3.57084 14.6056 2.66668 12 2.66668C9.39445 2.66668 7.1875 3.57084 5.37917 5.37918C3.57084 7.18751 2.66667 9.39445 2.66667 12C2.66667 14.6056 3.57084 16.8125 5.37917 18.6208C7.1875 20.4292 9.39445 21.3333 12 21.3333Z" fill="black"/>
</svg>
