<svg width="25" height="22" viewBox="0 0 25 22" fill="none" xmlns="http://www.w3.org/2000/svg">
<path d="M14.1667 0.5C11.382 0.5 8.71126 1.60625 6.74213 3.57538C4.77299 5.54451 3.66675 8.21523 3.66675 11H0.166748L4.70508 15.5383L4.78675 15.7017L9.50008 11H6.00008C6.00008 6.485 9.65175 2.83333 14.1667 2.83333C18.6817 2.83333 22.3334 6.485 22.3334 11C22.3334 15.515 18.6817 19.1667 14.1667 19.1667C11.9151 19.1667 9.87341 18.245 8.40341 16.7633L6.74675 18.42C7.71906 19.3977 8.87532 20.1732 10.1488 20.7018C11.4223 21.2304 12.7879 21.5017 14.1667 21.5C16.9515 21.5 19.6222 20.3938 21.5914 18.4246C23.5605 16.4555 24.6667 13.7848 24.6667 11C24.6667 8.21523 23.5605 5.54451 21.5914 3.57538C19.6222 1.60625 16.9515 0.5 14.1667 0.5ZM13.0001 6.33333V12.1667L17.9934 15.13L18.8334 13.7183L14.7501 11.2917V6.33333H13.0001Z" fill="black"/>
</svg>
