<svg width="28" height="29" viewBox="0 0 28 29" fill="none" xmlns="http://www.w3.org/2000/svg">
<path d="M14 9.5V6.5M14 9.5C12.34 9.5 11 9.5 11 11.5C11 14.5 17 14.5 17 17.5C17 19.5 15.66 19.5 14 19.5M14 9.5C15.66 9.5 17 10.26 17 11.5M11 17.5C11 19 12.34 19.5 14 19.5M14 19.5V22.5" stroke="black" stroke-width="2" stroke-linecap="round" stroke-linejoin="round"/>
<path d="M14 27.5C21.1797 27.5 27 21.6797 27 14.5C27 7.3203 21.1797 1.5 14 1.5C6.8203 1.5 1 7.3203 1 14.5C1 21.6797 6.8203 27.5 14 27.5Z" stroke="black" stroke-width="2" stroke-linecap="round" stroke-linejoin="round"/>
</svg>
