<svg width="22" height="26" viewBox="0 0 22 26" fill="none" xmlns="http://www.w3.org/2000/svg">
<path d="M3.8238 13.6183C3.67086 13.4543 3.58496 13.2319 3.58496 13C3.58496 12.7681 3.67086 12.5457 3.8238 12.3817L6.00158 10.0483C6.15639 9.89379 6.36115 9.80964 6.57272 9.81364C6.78429 9.81764 6.98616 9.90947 7.13579 10.0698C7.28541 10.2301 7.37112 10.4464 7.37486 10.6731C7.37859 10.8998 7.30005 11.1191 7.1558 11.285L6.3718 12.125H14.2009C14.4175 12.125 14.6252 12.2172 14.7784 12.3813C14.9315 12.5454 15.0176 12.768 15.0176 13C15.0176 13.2321 14.9315 13.4546 14.7784 13.6187C14.6252 13.7828 14.4175 13.875 14.2009 13.875H6.3718L7.1558 14.715C7.23603 14.7951 7.30039 14.8917 7.34503 14.9991C7.38966 15.1064 7.41366 15.2223 7.4156 15.3397C7.41753 15.4572 7.39736 15.5739 7.35629 15.6829C7.31521 15.7918 7.25408 15.8908 7.17653 15.9739C7.09898 16.057 7.0066 16.1225 6.90492 16.1665C6.80323 16.2105 6.69431 16.2321 6.58465 16.23C6.475 16.228 6.36686 16.2022 6.26668 16.1544C6.1665 16.1066 6.07634 16.0376 6.00158 15.9517L3.8238 13.6183Z" fill="black"/>
<path fill-rule="evenodd" clip-rule="evenodd" d="M13.0519 0.458344H14.2606C15.7502 0.458344 16.9502 0.458343 17.8942 0.594843C18.8742 0.734844 19.6996 1.03818 20.3551 1.73934C21.0106 2.44168 21.2916 3.32601 21.4244 4.37601C21.5507 5.38751 21.5507 6.67434 21.5507 8.26918V17.7308C21.5507 19.3257 21.5507 20.6125 21.4244 21.624C21.2927 22.674 21.0106 23.5583 20.3551 24.2607C19.6996 24.963 18.8742 25.264 17.8942 25.4063C16.9502 25.5417 15.7491 25.5417 14.2606 25.5417H13.0519C11.5634 25.5417 10.3624 25.5417 9.41832 25.4063C8.43832 25.264 7.61294 24.963 6.95743 24.2607C6.52405 23.794 6.25292 23.248 6.08087 22.625C5.04534 22.6238 4.18185 22.611 3.48278 22.5107C2.65087 22.3905 1.93003 22.1315 1.354 21.5143C0.777983 20.8972 0.53625 20.126 0.424094 19.2335C0.317383 18.3818 0.317383 17.3015 0.317383 15.9785V10.0215C0.317383 8.69968 0.317383 7.62051 0.424094 6.76651C0.53625 5.87634 0.777983 5.10401 1.354 4.48684C1.93003 3.86968 2.64978 3.61068 3.48278 3.49051C4.18185 3.39018 5.04534 3.37734 6.08087 3.37618C6.25292 2.75318 6.52405 2.20601 6.95852 1.74051C7.61294 1.03818 8.43941 0.737177 9.41941 0.59601C10.3624 0.45951 11.5634 0.45951 13.0519 0.45951V0.458344ZM5.764 18.838C5.76836 19.5905 5.77925 20.2672 5.81845 20.8738C4.91032 20.8703 4.2352 20.8528 3.70056 20.7758C3.0494 20.6825 2.73145 20.5145 2.50932 20.2765C2.28718 20.0397 2.13038 19.6978 2.04327 19.0002C1.95289 18.278 1.95072 17.3167 1.95072 15.9167V10.0833C1.95072 8.68334 1.95289 7.72201 2.04327 6.99984C2.13038 6.30218 2.28718 5.96151 2.50932 5.72351C2.73036 5.48551 3.0494 5.31751 3.70056 5.22418C4.2352 5.14718 4.91032 5.13084 5.81954 5.12618C5.77925 5.73284 5.76836 6.40951 5.764 7.16201C5.76285 7.39407 5.84778 7.61713 6.00012 7.7821C6.15246 7.94707 6.35972 8.04044 6.57632 8.04168C6.79291 8.04292 7.00109 7.95191 7.15506 7.7887C7.30903 7.62548 7.39618 7.40341 7.39734 7.17134C7.40387 5.89618 7.43436 4.99201 7.55196 4.30484C7.66629 3.64451 7.84814 3.26068 8.11274 2.97718C8.41436 2.65401 8.83794 2.44401 9.63718 2.32851C10.4593 2.21068 11.5493 2.20834 13.1118 2.20834H14.2007C15.7644 2.20834 16.8543 2.21068 17.6764 2.32851C18.4757 2.44401 18.8982 2.65518 19.2009 2.97718C19.5014 3.30034 19.6974 3.75301 19.8052 4.61051C19.9163 5.49018 19.9174 6.65918 19.9174 8.33334V17.6667C19.9174 19.3408 19.9163 20.5087 19.8052 21.3907C19.6974 22.247 19.5014 22.6997 19.1998 23.0228C18.8982 23.346 18.4757 23.556 17.6764 23.6715C16.8543 23.7893 15.7644 23.7917 14.2007 23.7917H13.1118C11.5493 23.7917 10.4593 23.7893 9.63609 23.6715C8.83794 23.556 8.41436 23.3448 8.11274 23.0228C7.84814 22.7382 7.66629 22.3555 7.55196 21.6952C7.43436 21.008 7.40387 20.1038 7.39734 18.8287C7.39677 18.7138 7.37508 18.6001 7.33351 18.4942C7.29194 18.3883 7.2313 18.2921 7.15506 18.2113C7.07882 18.1305 6.98847 18.0666 6.88917 18.0232C6.78987 17.9798 6.68356 17.9577 6.57632 17.9583C6.46907 17.959 6.36299 17.9822 6.26412 18.0267C6.16526 18.0713 6.07555 18.1362 6.00012 18.2179C5.92469 18.2996 5.86502 18.3964 5.8245 18.5028C5.78399 18.6092 5.76343 18.7231 5.764 18.838Z" fill="black"/>
</svg>
