<svg width="16" height="16" viewBox="0 0 16 16" fill="none" xmlns="http://www.w3.org/2000/svg">
<path d="M2 15L0.8 13.8L14.02 0.599999L15.22 1.8L2 15ZM12.22 15.3C11.56 15.3 10.9567 15.14 10.41 14.82C9.87 14.4933 9.43667 14.06 9.11 13.52C8.78333 12.9733 8.62 12.3667 8.62 11.7C8.62 11.0467 8.78667 10.4467 9.12 9.9C9.45333 9.35333 9.89333 8.91667 10.44 8.59C10.9867 8.26333 11.58 8.1 12.22 8.1C12.88 8.1 13.4833 8.26333 14.03 8.59C14.5767 8.91 15.01 9.34333 15.33 9.89C15.6567 10.43 15.82 11.0333 15.82 11.7C15.82 12.3667 15.6567 12.9733 15.33 13.52C15.01 14.06 14.5767 14.4933 14.03 14.82C13.4833 15.14 12.88 15.3 12.22 15.3ZM12.22 13.73C12.5867 13.73 12.9233 13.6367 13.23 13.45C13.5433 13.2633 13.79 13.0167 13.97 12.71C14.1567 12.4033 14.25 12.0667 14.25 11.7C14.25 11.3333 14.1567 10.9967 13.97 10.69C13.79 10.3767 13.5433 10.13 13.23 9.95C12.9233 9.76333 12.5867 9.67 12.22 9.67C11.8533 9.67 11.5167 9.76333 11.21 9.95C10.9033 10.13 10.6567 10.3767 10.47 10.69C10.2833 10.9967 10.19 11.3333 10.19 11.7C10.19 12.0667 10.2833 12.4033 10.47 12.71C10.6567 13.0167 10.9033 13.2633 11.21 13.45C11.5167 13.6367 11.8533 13.73 12.22 13.73ZM3.8 7.5C3.14 7.5 2.53667 7.34 1.99 7.02C1.44333 6.69333 1.00667 6.26 0.68 5.72C0.36 5.17333 0.2 4.56667 0.2 3.9C0.2 3.24667 0.366667 2.64667 0.7 2.1C1.03333 1.55333 1.47333 1.11667 2.02 0.789999C2.56667 0.463333 3.16 0.3 3.8 0.3C4.46 0.3 5.06 0.463333 5.6 0.789999C6.14667 1.11 6.58333 1.54333 6.91 2.09C7.23667 2.63 7.4 3.23333 7.4 3.9C7.4 4.56667 7.23667 5.17333 6.91 5.72C6.58333 6.26 6.14667 6.69333 5.6 7.02C5.06 7.34 4.46 7.5 3.8 7.5ZM3.8 5.93C4.16667 5.93 4.50333 5.83667 4.81 5.65C5.12333 5.46333 5.37 5.21667 5.55 4.91C5.73667 4.60333 5.83 4.26667 5.83 3.9C5.83 3.53333 5.73667 3.19667 5.55 2.89C5.37 2.57667 5.12333 2.33 4.81 2.15C4.50333 1.96333 4.16667 1.87 3.8 1.87C3.43333 1.87 3.09667 1.96333 2.79 2.15C2.48333 2.33 2.23667 2.57667 2.05 2.89C1.86333 3.19667 1.77 3.53333 1.77 3.9C1.77 4.26667 1.86333 4.60333 2.05 4.91C2.23667 5.21667 2.48333 5.46333 2.79 5.65C3.09667 5.83667 3.43333 5.93 3.8 5.93Z" fill="black"/>
</svg>
